<svg xmlns="http://www.w3.org/2000/svg" viewBox="0 0 541 88"><defs><style>.cls-2{fill:#fff}.cls-2,.cls-3,.cls-4,.cls-6{stroke:#757575}.cls-2,.cls-3,.cls-4,.cls-5{stroke-miterlimit:10}.cls-2,.cls-3,.cls-4,.cls-5,.cls-6{stroke-width:3px}.cls-3{fill:#e9eaeb}.cls-4,.cls-5,.cls-6{fill:none}.cls-5{stroke:#bcc0c4}</style><clipPath id="clip-_404_image"><path d="M0 0h541v88H0z"/></clipPath></defs><g id="_404_image" data-name="404_image" clip-path="url(#clip-_404_image)"><path fill="#fff" d="M0 0h541v88H0z"/><g id="Group_1962" data-name="Group 1962" transform="translate(-244 -242.48)"><g id="Group_10" data-name="Group 10" transform="translate(470.6 171.18)"><path id="Rectangle_164" data-name="Rectangle 164" class="cls-2" transform="translate(128.969 91.881)" d="M0 0h9.285v18.569H0z"/><path id="Path_3804" data-name="Path 3804" class="cls-2" d="M179.3 150.592h-61.9v-33.27c13.927-11.915 19.652-19.343 31.722-31.722h.31c11.915 12.379 19.188 19.652 30.02 31.722v33.27z" transform="translate(3.832 7.828)"/><path id="Path_3805" data-name="Path 3805" class="cls-3" d="M150.538 93.979l30.949 30.949 6.19-6.19L150.538 81.6 113.4 118.738l6.19 6.19z" transform="translate(1.642 5.639)"/><path id="Rectangle_165" data-name="Rectangle 165" class="cls-3" transform="translate(145.517 135.209)" d="M0 0h12.379v23.211H0z"/><path id="Rectangle_166" data-name="Rectangle 166" class="cls-2" transform="translate(164.086 135.209)" d="M0 0h11.927v12.379H0z"/><path id="Rectangle_181" data-name="Rectangle 181" class="cls-2" transform="translate(127.086 135.209)" d="M0 0h11.927v12.379H0z"/><path id="Line_1012" data-name="Line 1012" class="cls-4" transform="translate(181.034 158.42)" d="M0 0h18.426"/><path id="Line_1013" data-name="Line 1013" class="cls-4" transform="translate(116.542 158.42)" d="M3.071 0H0"/><path id="Line_1014" data-name="Line 1014" class="cls-4" transform="translate(110.4 158.42)" d="M3.071 0H0"/><path id="Line_1015" data-name="Line 1015" class="cls-4" transform="translate(201.698 158.42)" d="M4.642 0H0"/><path id="Path_3808" data-name="Path 3808" class="cls-5" d="M116.4 79.009h9.285c1.083-3.095 3.25-3.869 5.88-3.559a6.562 6.562 0 0 1 5.725-3.25c3.714 0 6.654 2.166 6.654 6.809h6.344" transform="translate(3.285 .493)"/><path id="Line_1016" data-name="Line 1016" class="cls-5" transform="translate(180.034 88.786)" d="M0 0h20.117"/><path id="Line_1017" data-name="Line 1017" class="cls-5" transform="translate(173.845 88.786)" d="M3.095 0H0"/><path id="Line_1018" data-name="Line 1018" class="cls-5" transform="translate(167.655 88.786)" d="M3.095 0H0"/><path id="Line_1019" data-name="Line 1019" class="cls-5" transform="translate(113.495 79.501)" d="M3.095 0H0"/><path id="Path_3809" data-name="Path 3809" class="cls-5" d="M145.4 79.5h6.035a5.662 5.662 0 0 1 4.8-3.095 4.765 4.765 0 0 1 2.012.464 8.538 8.538 0 0 1 7.892-5.571c4.642 0 8.511 5.261 8.511 8.356h12.534" transform="translate(19.16)"/><path id="Line_1020" data-name="Line 1020" class="cls-5" transform="translate(158.37 79.501)" d="M3.095 0H0"/></g><g id="Group_1893" data-name="Group 1893" transform="translate(133.6 171.18)"><path id="Rectangle_164-2" data-name="Rectangle 164" class="cls-2" transform="translate(128.969 91.881)" d="M0 0h9.285v18.569H0z"/><path id="Path_3804-2" data-name="Path 3804" class="cls-2" d="M179.3 150.592h-61.9v-33.27c13.927-11.915 19.652-19.343 31.722-31.722h.31c11.915 12.379 19.188 19.652 30.02 31.722v33.27z" transform="translate(3.832 7.828)"/><path id="Path_3805-2" data-name="Path 3805" class="cls-3" d="M150.538 93.979l30.949 30.949 6.19-6.19L150.538 81.6 113.4 118.738l6.19 6.19z" transform="translate(1.642 5.639)"/><path id="Rectangle_165-2" data-name="Rectangle 165" class="cls-3" transform="translate(145.517 135.209)" d="M0 0h12.379v23.211H0z"/><path id="Rectangle_166-2" data-name="Rectangle 166" class="cls-2" transform="translate(164.086 135.209)" d="M0 0h11.927v12.379H0z"/><path id="Rectangle_181-2" data-name="Rectangle 181" class="cls-2" transform="translate(127.086 135.209)" d="M0 0h11.927v12.379H0z"/><path id="Line_1012-2" data-name="Line 1012" class="cls-4" transform="translate(181.034 158.42)" d="M0 0h18.426"/><path id="Line_1013-2" data-name="Line 1013" class="cls-4" transform="translate(116.542 158.42)" d="M3.071 0H0"/><path id="Line_1014-2" data-name="Line 1014" class="cls-4" transform="translate(110.4 158.42)" d="M3.071 0H0"/><path id="Line_1015-2" data-name="Line 1015" class="cls-4" transform="translate(201.698 158.42)" d="M4.642 0H0"/><path id="Path_3808-2" data-name="Path 3808" class="cls-5" d="M116.4 79.009h9.285c1.083-3.095 3.25-3.869 5.88-3.559a6.562 6.562 0 0 1 5.725-3.25c3.714 0 6.654 2.166 6.654 6.809h6.344" transform="translate(3.285 .493)"/><path id="Line_1016-2" data-name="Line 1016" class="cls-5" transform="translate(180.034 88.786)" d="M0 0h20.117"/><path id="Line_1017-2" data-name="Line 1017" class="cls-5" transform="translate(173.845 88.786)" d="M3.095 0H0"/><path id="Line_1018-2" data-name="Line 1018" class="cls-5" transform="translate(167.655 88.786)" d="M3.095 0H0"/><path id="Line_1019-2" data-name="Line 1019" class="cls-5" transform="translate(113.495 79.501)" d="M3.095 0H0"/><path id="Path_3809-2" data-name="Path 3809" class="cls-5" d="M145.4 79.5h6.035a5.662 5.662 0 0 1 4.8-3.095 4.765 4.765 0 0 1 2.012.464 8.538 8.538 0 0 1 7.892-5.571c4.642 0 8.511 5.261 8.511 8.356h12.534" transform="translate(19.16)"/><path id="Line_1020-2" data-name="Line 1020" class="cls-5" transform="translate(158.37 79.501)" d="M3.095 0H0"/></g><g id="Group_1891" data-name="Group 1891" transform="translate(578.6 171.18)"><path id="Rectangle_164-3" data-name="Rectangle 164" class="cls-2" transform="translate(128.969 91.881)" d="M0 0h9.285v18.569H0z"/><path id="Path_3804-3" data-name="Path 3804" class="cls-2" d="M179.3 150.592h-61.9v-33.27c13.927-11.915 19.652-19.343 31.722-31.722h.31c11.915 12.379 19.188 19.652 30.02 31.722v33.27z" transform="translate(3.832 7.828)"/><path id="Path_3805-3" data-name="Path 3805" class="cls-3" d="M150.538 93.979l30.949 30.949 6.19-6.19L150.538 81.6 113.4 118.738l6.19 6.19z" transform="translate(1.642 5.639)"/><path id="Rectangle_165-3" data-name="Rectangle 165" class="cls-3" transform="translate(145.517 135.209)" d="M0 0h12.379v23.211H0z"/><path id="Rectangle_166-3" data-name="Rectangle 166" class="cls-2" transform="translate(164.086 135.209)" d="M0 0h11.927v12.379H0z"/><path id="Rectangle_181-3" data-name="Rectangle 181" class="cls-2" transform="translate(127.086 135.209)" d="M0 0h11.927v12.379H0z"/><path id="Line_1012-3" data-name="Line 1012" class="cls-4" transform="translate(181.034 158.42)" d="M0 0h18.426"/><path id="Line_1013-3" data-name="Line 1013" class="cls-4" transform="translate(116.542 158.42)" d="M3.071 0H0"/><path id="Line_1014-3" data-name="Line 1014" class="cls-4" transform="translate(110.4 158.42)" d="M3.071 0H0"/><path id="Line_1015-3" data-name="Line 1015" class="cls-4" transform="translate(201.698 158.42)" d="M4.642 0H0"/><path id="Path_3808-3" data-name="Path 3808" class="cls-5" d="M116.4 79.009h9.285c1.083-3.095 3.25-3.869 5.88-3.559a6.562 6.562 0 0 1 5.725-3.25c3.714 0 6.654 2.166 6.654 6.809h6.344" transform="translate(3.285 .493)"/><path id="Line_1016-3" data-name="Line 1016" class="cls-5" transform="translate(180.034 88.786)" d="M0 0h20.117"/><path id="Line_1017-3" data-name="Line 1017" class="cls-5" transform="translate(173.845 88.786)" d="M3.095 0H0"/><path id="Line_1018-3" data-name="Line 1018" class="cls-5" transform="translate(167.655 88.786)" d="M3.095 0H0"/><path id="Line_1019-3" data-name="Line 1019" class="cls-5" transform="translate(113.495 79.501)" d="M3.095 0H0"/><path id="Path_3809-3" data-name="Path 3809" class="cls-5" d="M145.4 79.5h6.035a5.662 5.662 0 0 1 4.8-3.095 4.765 4.765 0 0 1 2.012.464 8.538 8.538 0 0 1 7.892-5.571c4.642 0 8.511 5.261 8.511 8.356h12.534" transform="translate(19.16)"/><path id="Line_1020-3" data-name="Line 1020" class="cls-5" transform="translate(158.37 79.501)" d="M3.095 0H0"/></g><g id="Group_1892" data-name="Group 1892" transform="translate(238.6 171.18)"><path id="Rectangle_164-4" data-name="Rectangle 164" class="cls-2" transform="translate(128.969 91.881)" d="M0 0h9.285v18.569H0z"/><path id="Path_3804-4" data-name="Path 3804" class="cls-2" d="M179.3 150.592h-61.9v-33.27c13.927-11.915 19.652-19.343 31.722-31.722h.31c11.915 12.379 19.188 19.652 30.02 31.722v33.27z" transform="translate(3.832 7.828)"/><path id="Path_3805-4" data-name="Path 3805" class="cls-3" d="M150.538 93.979l30.949 30.949 6.19-6.19L150.538 81.6 113.4 118.738l6.19 6.19z" transform="translate(1.642 5.639)"/><path id="Rectangle_165-4" data-name="Rectangle 165" class="cls-3" transform="translate(145.517 135.209)" d="M0 0h12.379v23.211H0z"/><path id="Rectangle_166-4" data-name="Rectangle 166" class="cls-2" transform="translate(164.086 135.209)" d="M0 0h11.927v12.379H0z"/><path id="Rectangle_181-4" data-name="Rectangle 181" class="cls-2" transform="translate(127.086 135.209)" d="M0 0h11.927v12.379H0z"/><path id="Line_1012-4" data-name="Line 1012" class="cls-4" transform="translate(181.034 158.42)" d="M0 0h18.426"/><path id="Line_1013-4" data-name="Line 1013" class="cls-4" transform="translate(116.542 158.42)" d="M3.071 0H0"/><path id="Line_1014-4" data-name="Line 1014" class="cls-4" transform="translate(110.4 158.42)" d="M3.071 0H0"/><path id="Line_1015-4" data-name="Line 1015" class="cls-4" transform="translate(201.698 158.42)" d="M4.642 0H0"/><path id="Path_3808-4" data-name="Path 3808" class="cls-5" d="M116.4 79.009h9.285c1.083-3.095 3.25-3.869 5.88-3.559a6.562 6.562 0 0 1 5.725-3.25c3.714 0 6.654 2.166 6.654 6.809h6.344" transform="translate(3.285 .493)"/><path id="Line_1016-4" data-name="Line 1016" class="cls-5" transform="translate(180.034 88.786)" d="M0 0h20.117"/><path id="Line_1017-4" data-name="Line 1017" class="cls-5" transform="translate(173.845 88.786)" d="M3.095 0H0"/><path id="Line_1018-4" data-name="Line 1018" class="cls-5" transform="translate(167.655 88.786)" d="M3.095 0H0"/><path id="Line_1019-4" data-name="Line 1019" class="cls-5" transform="translate(113.495 79.501)" d="M3.095 0H0"/><path id="Path_3809-4" data-name="Path 3809" class="cls-5" d="M145.4 79.5h6.035a5.662 5.662 0 0 1 4.8-3.095 4.765 4.765 0 0 1 2.012.464 8.538 8.538 0 0 1 7.892-5.571c4.642 0 8.511 5.261 8.511 8.356h12.534" transform="translate(19.16)"/><path id="Line_1020-4" data-name="Line 1020" class="cls-5" transform="translate(158.37 79.501)" d="M3.095 0H0"/></g><g id="Group_1904" data-name="Group 1904" transform="translate(122 -80)"><path id="Line_1119" data-name="Line 1119" class="cls-6" transform="translate(359.5 384.5)" d="M0 0v8"/><path id="Line_1142" data-name="Line 1142" class="cls-6" transform="translate(367.5 348.5)" d="M0 0v10"/><path id="Line_1143" data-name="Line 1143" class="cls-6" transform="translate(367.5 342.5)" d="M10 0H0"/><path id="Line_1140" data-name="Line 1140" class="cls-6" transform="translate(421.5 384.5)" d="M0 0v8"/><path id="Line_1120" data-name="Line 1120" class="cls-6" transform="translate(359.5 397.5)" d="M0 0v9"/><path id="Line_1141" data-name="Line 1141" class="cls-6" transform="translate(421.5 397.5)" d="M0 0v9"/><path id="Line_1121" data-name="Line 1121" class="cls-6" transform="translate(361.5 409.5)" d="M0 0h9"/><path id="Path_3949" data-name="Path 3949" class="cls-6" d="M0 0h9" transform="translate(345.5 409.5)"/><path id="Path_3950" data-name="Path 3950" class="cls-6" d="M0 0h9" transform="translate(329.5 409.5)"/><path id="Line_1122" data-name="Line 1122" class="cls-6" transform="translate(377.5 409.5)" d="M0 0h9"/><path id="Line_1127" data-name="Line 1127" class="cls-6" transform="translate(361.5 372.5)" d="M0 7l7-7"/><path id="Line_1145" data-name="Line 1145" class="cls-6" transform="translate(354.5 378.5)" d="M0 0l4 4"/><path id="Line_1128" data-name="Line 1128" class="cls-6" transform="translate(372.5 361.5)" d="M0 7l7-7"/><path id="Line_1129" data-name="Line 1129" class="cls-6" transform="translate(384.5 350.5)" d="M0 6l6-6"/><path id="Line_1130" data-name="Line 1130" class="cls-6" transform="translate(398.5 358.5)" d="M0 0l7 7"/><path id="Line_1146" data-name="Line 1146" class="cls-6" transform="translate(389.5 349.5)" d="M0 0l5 5"/><path id="Line_1131" data-name="Line 1131" class="cls-6" transform="translate(409.5 369.5)" d="M0 0l7 7"/><path id="Line_1132" data-name="Line 1132" class="cls-6" transform="translate(421.5 376.5)" d="M0 6l6-6"/><path id="Line_1133" data-name="Line 1133" class="cls-6" transform="translate(415.5 363.5)" d="M0 0l7 7"/><path id="Path_3951" data-name="Path 3951" class="cls-6" d="M0 0l5.827 5.827" transform="rotate(90 3.827 364.5)"/><path id="Line_1139" data-name="Line 1139" class="cls-6" transform="translate(352.5 370.5)" d="M6 0L0 6"/><path id="Line_1134" data-name="Line 1134" class="cls-6" transform="translate(404.5 352.5)" d="M0 0l6 6"/><path id="Line_1137" data-name="Line 1137" class="cls-6" transform="translate(374.5 348.5)" d="M6 0L0 6"/><path id="Line_1135" data-name="Line 1135" class="cls-6" transform="translate(393.5 341.5)" d="M0 0l6 6"/><path id="Line_1136" data-name="Line 1136" class="cls-6" transform="rotate(90 26 364.5)" d="M0 0l7 7"/><path id="Line_1123" data-name="Line 1123" class="cls-6" transform="translate(393.5 409.5)" d="M0 0h9"/><path id="Line_1124" data-name="Line 1124" class="cls-6" transform="translate(409.5 409.5)" d="M0 0h9"/><path id="Line_1125" data-name="Line 1125" class="cls-6" transform="translate(425.5 409.5)" d="M0 0h9"/><path id="Line_1144" data-name="Line 1144" class="cls-6" transform="translate(441.5 409.5)" d="M0 0h9"/></g></g></g></svg>