<?xml version="1.0" standalone="no"?>
<!DOCTYPE svg PUBLIC "-//W3C//DTD SVG 20010904//EN"
 "http://www.w3.org/TR/2001/REC-SVG-20010904/DTD/svg10.dtd">
<svg version="1.0" xmlns="http://www.w3.org/2000/svg"
 width="500.000000pt" height="500.000000pt" viewBox="0 0 500.000000 500.000000"
 preserveAspectRatio="xMidYMid meet">

<g transform="translate(0.000000,500.000000) scale(0.100000,-0.100000)"
fill="#FFFFFF" stroke="none">
<path d="M1960 4690 c-575 -45 -1099 -394 -1364 -910 -180 -349 -233 -738
-155 -1123 119 -589 555 -1079 1128 -1267 440 -145 907 -105 1318 111 l128 67
613 -612 612 -611 207 208 208 207 -604 604 -603 603 57 83 c162 238 264 535
284 830 63 931 -626 1734 -1553 1810 -71 5 -141 9 -155 9 -14 -1 -69 -5 -121
-9z m335 -401 c539 -75 995 -520 1089 -1064 21 -117 21 -333 0 -450 -81 -472
-434 -875 -890 -1018 -241 -76 -547 -76 -785 -1 -337 106 -615 344 -777 664
-89 176 -132 366 -132 580 0 358 128 668 380 921 192 193 462 331 715 368 87
12 311 13 400 0z"/>
</g>
</svg>
