<?xml version="1.0" encoding="UTF-8"?>
<!DOCTYPE svg PUBLIC "-//W3C//DTD SVG 1.1//EN" "http://www.w3.org/Graphics/SVG/1.1/DTD/svg11.dtd">
<svg xmlns="http://www.w3.org/2000/svg" version="1.1" width="500px" height="500px" style="shape-rendering:geometricPrecision; text-rendering:geometricPrecision; image-rendering:optimizeQuality; fill-rule:evenodd; clip-rule:evenodd" xmlns:xlink="http://www.w3.org/1999/xlink">
<g><path style="opacity:1" fill="#7B8C56" d="M 222.5,-0.5 C 237.5,-0.5 252.5,-0.5 267.5,-0.5C 290.537,2.25567 313.203,7.25567 335.5,14.5C 336.78,15.9313 338.447,16.5979 340.5,16.5C 344.213,18.685 348.213,20.3517 352.5,21.5C 357.262,22.7164 361.595,24.7164 365.5,27.5C 365.973,28.9063 366.973,29.573 368.5,29.5C 370.153,29.6596 371.486,30.3263 372.5,31.5C 373.659,33.2503 375.326,34.2503 377.5,34.5C 378.492,34.3284 379.158,34.6618 379.5,35.5C 379.973,36.9063 380.973,37.573 382.5,37.5C 383.492,37.3284 384.158,37.6618 384.5,38.5C 385.035,40.4456 386.368,41.4456 388.5,41.5C 389.492,41.3284 390.158,41.6618 390.5,42.5C 391.035,44.4456 392.368,45.4456 394.5,45.5C 396.373,48.4488 399.039,50.4488 402.5,51.5C 403.167,51.5 403.5,51.8333 403.5,52.5C 403.973,53.9063 404.973,54.573 406.5,54.5C 407.5,54.8333 408.167,55.5 408.5,56.5C 409.262,58.2624 410.596,59.2624 412.5,59.5C 414.167,60.5 415.5,61.8333 416.5,63.5C 417.585,65.5869 419.251,66.9202 421.5,67.5C 421.525,70.179 422.858,71.5123 425.5,71.5C 428.436,76.1053 432.102,80.1053 436.5,83.5C 438.094,86.7642 440.427,89.4309 443.5,91.5C 443.738,93.4044 444.738,94.7377 446.5,95.5C 447.08,97.7488 448.413,99.4154 450.5,100.5C 450.738,102.404 451.738,103.738 453.5,104.5C 453.427,106.027 454.094,107.027 455.5,107.5C 455.427,109.027 456.094,110.027 457.5,110.5C 457.427,112.027 458.094,113.027 459.5,113.5C 459.427,115.027 460.094,116.027 461.5,116.5C 461.427,118.027 462.094,119.027 463.5,119.5C 464.338,119.842 464.672,120.508 464.5,121.5C 464.241,123.989 465.241,125.656 467.5,126.5C 468.674,127.514 469.34,128.847 469.5,130.5C 469.427,132.027 470.094,133.027 471.5,133.5C 474.949,138.735 477.616,144.402 479.5,150.5C 480.75,156.987 483.083,162.987 486.5,168.5C 487.057,173.165 488.39,177.498 490.5,181.5C 490.41,184.152 491.076,186.485 492.5,188.5C 493.451,189.919 493.784,191.585 493.5,193.5C 493.5,195.167 493.5,196.833 493.5,198.5C 495.466,213.447 497.133,228.447 498.5,243.5C 498.519,246.206 497.852,248.706 496.5,251C 499.113,257.16 498.779,263.326 495.5,269.5C 496.102,271.608 496.435,273.775 496.5,276C 495.83,280.515 494.997,285.015 494,289.5C 491.811,286.907 489.644,286.907 487.5,289.5C 487.509,293.33 487.675,297.33 488,301.5C 488.261,304.663 489.094,307.663 490.5,310.5C 487.523,315.377 486.189,320.71 486.5,326.5C 485.5,330.5 484.5,334.5 483.5,338.5C 483.598,340.553 482.931,342.22 481.5,343.5C 480.069,344.78 479.402,346.447 479.5,348.5C 477.552,350.32 476.552,352.654 476.5,355.5C 473.594,362.981 469.928,369.981 465.5,376.5C 464.094,376.973 463.427,377.973 463.5,379.5C 462.094,379.973 461.427,380.973 461.5,382.5C 461.672,383.492 461.338,384.158 460.5,384.5C 459.094,384.973 458.427,385.973 458.5,387.5C 457.094,387.973 456.427,388.973 456.5,390.5C 456.5,391.167 456.167,391.5 455.5,391.5C 454.094,391.973 453.427,392.973 453.5,394.5C 452.094,394.973 451.427,395.973 451.5,397.5C 449.738,398.262 448.738,399.596 448.5,401.5C 448.5,402.167 448.167,402.5 447.5,402.5C 446.094,402.973 445.427,403.973 445.5,405.5C 445.167,406.5 444.5,407.167 443.5,407.5C 442.094,407.973 441.427,408.973 441.5,410.5C 440.167,412.167 438.833,413.833 437.5,415.5C 435.167,415.833 433.833,417.167 433.5,419.5C 433.167,420.5 432.5,421.167 431.5,421.5C 429.501,420.143 428.335,420.81 428,423.5C 427.586,423.043 427.086,422.709 426.5,422.5C 425.8,425.015 424.467,425.682 422.5,424.5C 422.942,427.031 422.275,429.365 420.5,431.5C 419.5,431.5 418.5,431.5 417.5,431.5C 417.5,432.833 417.5,434.167 417.5,435.5C 415.973,435.427 414.973,436.094 414.5,437.5C 412.12,440.881 409.12,443.547 405.5,445.5C 403.973,445.427 402.973,446.094 402.5,447.5C 402.5,448.167 402.167,448.5 401.5,448.5C 399.596,448.738 398.262,449.738 397.5,451.5C 395.973,451.427 394.973,452.094 394.5,453.5C 393.564,454.974 392.23,455.974 390.5,456.5C 388.973,456.427 387.973,457.094 387.5,458.5C 386.178,458.67 385.011,458.337 384,457.5C 383.59,458.901 383.09,460.234 382.5,461.5C 382.027,462.906 381.027,463.573 379.5,463.5C 377.326,463.75 375.659,464.75 374.5,466.5C 374.158,467.338 373.492,467.672 372.5,467.5C 370.973,467.427 369.973,468.094 369.5,469.5C 364.254,472.955 358.587,475.622 352.5,477.5C 349.088,478.042 346.088,479.375 343.5,481.5C 341.447,481.402 339.78,482.069 338.5,483.5C 334.463,484.065 330.797,485.399 327.5,487.5C 325.102,487.259 323.102,487.926 321.5,489.5C 302.269,494.149 282.936,497.482 263.5,499.5C 249.5,499.5 235.5,499.5 221.5,499.5C 221.5,498.833 221.167,498.5 220.5,498.5C 216.433,496.946 212.1,496.28 207.5,496.5C 203.575,496.57 199.909,495.903 196.5,494.5C 194.162,492.96 191.495,492.294 188.5,492.5C 185.201,490.517 181.534,489.517 177.5,489.5C 173.915,487.194 169.915,485.861 165.5,485.5C 164.209,485.737 163.209,485.404 162.5,484.5C 161.365,482.787 159.698,482.12 157.5,482.5C 155.824,480.166 153.491,479.166 150.5,479.5C 148.447,479.598 146.78,478.931 145.5,477.5C 144.817,475.824 143.483,475.157 141.5,475.5C 137.182,474.008 133.182,472.008 129.5,469.5C 129.027,468.094 128.027,467.427 126.5,467.5C 124.847,467.34 123.514,466.674 122.5,465.5C 122.027,464.094 121.027,463.427 119.5,463.5C 119.027,462.094 118.027,461.427 116.5,461.5C 115.508,461.672 114.842,461.338 114.5,460.5C 114.027,459.094 113.027,458.427 111.5,458.5C 110.738,456.738 109.404,455.738 107.5,455.5C 107.027,454.094 106.027,453.427 104.5,453.5C 104.027,452.094 103.027,451.427 101.5,451.5C 100.415,449.413 98.7488,448.08 96.5,447.5C 95.4154,445.413 93.7488,444.08 91.5,443.5C 90.0892,441.086 88.0892,439.419 85.5,438.5C 84.0892,436.086 82.0892,434.419 79.5,433.5C 78.5,433.167 77.8333,432.5 77.5,431.5C 77.5123,428.858 76.179,427.525 73.5,427.5C 73.5123,424.858 72.179,423.525 69.5,423.5C 69.5123,420.858 68.179,419.525 65.5,419.5C 64.8333,416.833 63.1667,415.167 60.5,414.5C 59.5,413.167 58.5,411.833 57.5,410.5C 57.573,408.973 56.9063,407.973 55.5,407.5C 54.5,407.167 53.8333,406.5 53.5,405.5C 53.573,403.973 52.9063,402.973 51.5,402.5C 50.5,402.167 49.8333,401.5 49.5,400.5C 49.573,398.973 48.9063,397.973 47.5,397.5C 47.4456,395.368 46.4456,394.035 44.5,393.5C 42.7819,391.777 41.4486,389.777 40.5,387.5C 40.1298,384.733 38.7964,382.733 36.5,381.5C 35.6618,381.158 35.3284,380.492 35.5,379.5C 35.2503,377.326 34.2503,375.659 32.5,374.5C 31.6618,374.158 31.3284,373.492 31.5,372.5C 31.573,370.973 30.9063,369.973 29.5,369.5C 26.9922,365.818 24.9922,361.818 23.5,357.5C 23.2927,354.759 22.2927,352.426 20.5,350.5C 19.6618,350.158 19.3284,349.492 19.5,348.5C 19.5979,346.447 18.9313,344.78 17.5,343.5C 17.5979,341.447 16.9313,339.78 15.5,338.5C 7.12662,314.024 1.79329,289.024 -0.5,263.5C -0.5,249.5 -0.5,235.5 -0.5,221.5C 0.605253,214.888 1.93859,208.221 3.5,201.5C 6.66831,190.645 9.66831,179.645 12.5,168.5C 14.0739,166.898 14.7406,164.898 14.5,162.5C 16.2132,161.365 16.8799,159.698 16.5,157.5C 18.8337,155.824 19.8337,153.491 19.5,150.5C 19.8925,148.716 20.5592,147.05 21.5,145.5C 23.1765,144.817 23.8432,143.483 23.5,141.5C 24.6589,137.849 26.3256,134.515 28.5,131.5C 29.9063,131.027 30.573,130.027 30.5,128.5C 30.6596,126.847 31.3263,125.514 32.5,124.5C 33.9063,124.027 34.573,123.027 34.5,121.5C 34.3284,120.508 34.6618,119.842 35.5,119.5C 36.9063,119.027 37.573,118.027 37.5,116.5C 38.9063,116.027 39.573,115.027 39.5,113.5C 41.369,111.966 42.7023,109.966 43.5,107.5C 44.9063,107.027 45.573,106.027 45.5,104.5C 47.2624,103.738 48.2624,102.404 48.5,100.5C 50.2624,99.7377 51.2624,98.4044 51.5,96.5C 53.5869,95.4154 54.9202,93.7488 55.5,91.5C 58.2427,89.7607 60.2427,87.4274 61.5,84.5C 69.5,77.1667 77.1667,69.5 84.5,61.5C 87.4274,60.2427 89.7607,58.2427 91.5,55.5C 93.7488,54.9202 95.4154,53.5869 96.5,51.5C 98.4044,51.2624 99.7377,50.2624 100.5,48.5C 102.404,48.2624 103.738,47.2624 104.5,45.5C 106.027,45.573 107.027,44.9063 107.5,43.5C 109.966,42.7023 111.966,41.369 113.5,39.5C 115.027,39.573 116.027,38.9063 116.5,37.5C 118.027,37.573 119.027,36.9063 119.5,35.5C 119.842,34.6618 120.508,34.3284 121.5,34.5C 123.027,34.573 124.027,33.9063 124.5,32.5C 125.514,31.3263 126.847,30.6596 128.5,30.5C 130.027,30.573 131.027,29.9063 131.5,28.5C 134.515,26.3256 137.849,24.6589 141.5,23.5C 144.491,23.8337 146.824,22.8337 148.5,20.5C 152.165,20.4982 155.165,19.1648 157.5,16.5C 159.698,16.8799 161.365,16.2132 162.5,14.5C 164.898,14.7406 166.898,14.0739 168.5,12.5C 169.209,11.596 170.209,11.2627 171.5,11.5C 173.898,11.7406 175.898,11.0739 177.5,9.5C 183.085,8.77049 188.418,7.43715 193.5,5.5C 196.495,5.70621 199.162,5.03954 201.5,3.5C 208.538,1.82932 215.538,0.495988 222.5,-0.5 Z M 252.5,94.5 C 254.936,95.871 257.603,96.871 260.5,97.5C 262.181,99.0075 264.181,100.008 266.5,100.5C 267.262,102.262 268.596,103.262 270.5,103.5C 271.5,105.167 272.833,106.5 274.5,107.5C 274.833,108.5 275.5,109.167 276.5,109.5C 276.427,111.027 277.094,112.027 278.5,112.5C 279.263,114.368 280.263,116.035 281.5,117.5C 281.66,119.153 282.326,120.486 283.5,121.5C 286.12,130.625 287.12,139.958 286.5,149.5C 285.13,152.619 284.13,155.952 283.5,159.5C 282.596,160.209 282.263,161.209 282.5,162.5C 281.094,162.973 280.427,163.973 280.5,165.5C 279.662,165.842 279.328,166.508 279.5,167.5C 278.094,167.973 277.427,168.973 277.5,170.5C 269.5,177.833 261.833,185.5 254.5,193.5C 253.596,194.209 253.263,195.209 253.5,196.5C 298.833,196.5 344.167,196.5 389.5,196.5C 390.568,197.434 391.901,197.768 393.5,197.5C 396.33,198.735 399.33,199.735 402.5,200.5C 403.514,201.674 404.847,202.34 406.5,202.5C 406.973,203.906 407.973,204.573 409.5,204.5C 409.973,205.906 410.973,206.573 412.5,206.5C 415.167,209.833 418.167,212.833 421.5,215.5C 421.833,216.5 422.5,217.167 423.5,217.5C 423.427,219.027 424.094,220.027 425.5,220.5C 425.328,221.492 425.662,222.158 426.5,222.5C 432.72,234.823 434.72,247.823 432.5,261.5C 431.566,262.568 431.232,263.901 431.5,265.5C 429.935,267.509 428.935,269.843 428.5,272.5C 426.992,274.181 425.992,276.181 425.5,278.5C 424.094,278.973 423.427,279.973 423.5,281.5C 420.757,283.239 418.757,285.573 417.5,288.5C 415.251,289.08 413.585,290.413 412.5,292.5C 410.973,292.427 409.973,293.094 409.5,294.5C 407.973,294.427 406.973,295.094 406.5,296.5C 405.508,296.328 404.842,296.662 404.5,297.5C 399.459,299.336 394.459,301.003 389.5,302.5C 344.167,302.5 298.833,302.5 253.5,302.5C 253.263,303.791 253.596,304.791 254.5,305.5C 262.5,314.167 270.833,322.5 279.5,330.5C 280.026,332.23 281.026,333.564 282.5,334.5C 282.66,336.153 283.326,337.486 284.5,338.5C 284.402,340.553 285.069,342.22 286.5,343.5C 286.721,346.067 287.388,348.401 288.5,350.5C 288.5,350.833 288.5,351.167 288.5,351.5C 288.951,357.649 288.951,363.649 288.5,369.5C 287.525,372.067 286.858,374.733 286.5,377.5C 285.264,379.649 284.264,381.982 283.5,384.5C 282.094,384.973 281.427,385.973 281.5,387.5C 280.662,387.842 280.328,388.508 280.5,389.5C 278.413,390.585 277.08,392.251 276.5,394.5C 275.5,394.833 274.833,395.5 274.5,396.5C 272.251,397.08 270.585,398.413 269.5,400.5C 267.973,400.427 266.973,401.094 266.5,402.5C 263.982,403.264 261.649,404.264 259.5,405.5C 258.508,405.328 257.842,405.662 257.5,406.5C 254.572,406.565 251.905,407.232 249.5,408.5C 237.867,409.618 226.867,407.618 216.5,402.5C 216.158,401.662 215.492,401.328 214.5,401.5C 214.027,400.094 213.027,399.427 211.5,399.5C 210.738,397.738 209.404,396.738 207.5,396.5C 207.144,394.81 206.144,393.81 204.5,393.5C 202.906,390.236 200.573,387.569 197.5,385.5C 197.167,385.5 196.833,385.5 196.5,385.5C 194.906,382.236 192.573,379.569 189.5,377.5C 189.167,377.5 188.833,377.5 188.5,377.5C 187.581,374.911 185.914,372.911 183.5,371.5C 177.828,365.495 171.828,359.829 165.5,354.5C 165.573,352.973 164.906,351.973 163.5,351.5C 159.819,348.088 156.153,344.754 152.5,341.5C 152.573,339.973 151.906,338.973 150.5,338.5C 128.194,316.527 105.86,294.527 83.5,272.5C 82.9202,270.251 81.5869,268.585 79.5,267.5C 79.0075,265.181 78.0075,263.181 76.5,261.5C 76.051,257.473 75.3844,253.473 74.5,249.5C 75.2876,244.769 76.2876,240.103 77.5,235.5C 78.8202,233.537 80.1535,231.537 81.5,229.5C 82.9063,229.027 83.573,228.027 83.5,226.5C 85.1436,226.19 86.1436,225.19 86.5,223.5C 87.8333,223.5 88.5,222.833 88.5,221.5C 89.1667,221.5 89.5,221.167 89.5,220.5C 90.8333,220.5 91.5,219.833 91.5,218.5C 93.1436,218.19 94.1436,217.19 94.5,215.5C 96.5,215.5 97.5,214.5 97.5,212.5C 99.5,212.5 100.5,211.5 100.5,209.5C 100.833,209.5 101.167,209.5 101.5,209.5C 102.5,209.167 103.167,208.5 103.5,207.5C 103.5,207.167 103.5,206.833 103.5,206.5C 104.833,206.5 105.5,205.833 105.5,204.5C 107.5,204.5 108.5,203.5 108.5,201.5C 108.833,201.5 109.167,201.5 109.5,201.5C 110.5,201.167 111.167,200.5 111.5,199.5C 116.534,195.467 120.867,190.8 124.5,185.5C 126.5,185.5 127.5,184.5 127.5,182.5C 130.089,181.581 132.089,179.914 133.5,177.5C 134.5,177.167 135.167,176.5 135.5,175.5C 136.5,175.167 137.167,174.5 137.5,173.5C 139.833,171.833 141.833,169.833 143.5,167.5C 145.167,166.5 146.5,165.167 147.5,163.5C 149.167,162.5 150.5,161.167 151.5,159.5C 152.5,159.167 153.167,158.5 153.5,157.5C 154.5,157.167 155.167,156.5 155.5,155.5C 156.833,154.833 157.833,153.833 158.5,152.5C 159.167,152.5 159.5,152.167 159.5,151.5C 161.167,150.5 162.5,149.167 163.5,147.5C 164.833,146.833 165.833,145.833 166.5,144.5C 167.167,144.5 167.5,144.167 167.5,143.5C 168.5,143.167 169.167,142.5 169.5,141.5C 173.5,138.167 177.167,134.5 180.5,130.5C 181.833,129.833 182.833,128.833 183.5,127.5C 184.5,127.167 185.167,126.5 185.5,125.5C 186.833,124.833 187.833,123.833 188.5,122.5C 189.833,121.833 190.833,120.833 191.5,119.5C 192.833,118.833 193.833,117.833 194.5,116.5C 195.5,116.167 196.167,115.5 196.5,114.5C 197.833,113.833 198.833,112.833 199.5,111.5C 201.833,109.833 203.833,107.833 205.5,105.5C 207.191,104.136 208.858,102.803 210.5,101.5C 211.71,101.068 212.71,100.401 213.5,99.5C 215.153,99.3404 216.486,98.6737 217.5,97.5C 219.153,97.3404 220.486,96.6737 221.5,95.5C 231.819,92.5703 242.152,92.237 252.5,94.5 Z"/></g>
<g><path style="opacity:0.635" fill="#7B8C56" d="M 201.5,3.5 C 199.162,5.03954 196.495,5.70621 193.5,5.5C 195.905,4.2318 198.572,3.56513 201.5,3.5 Z"/></g>
<g><path style="opacity:0.212" fill="#7B8C56" d="M 267.5,-0.5 C 270.5,-0.5 273.5,-0.5 276.5,-0.5C 287.781,1.18827 299.114,3.35494 310.5,6C 319.208,8.08399 327.541,10.9173 335.5,14.5C 313.203,7.25567 290.537,2.25567 267.5,-0.5 Z"/></g>
<g><path style="opacity:0.525" fill="#7B8C56" d="M 193.5,5.5 C 188.418,7.43715 183.085,8.77049 177.5,9.5C 182.497,7.25071 187.83,5.91737 193.5,5.5 Z"/></g>
<g><path style="opacity:0.643" fill="#7B8C56" d="M 177.5,9.5 C 175.898,11.0739 173.898,11.7406 171.5,11.5C 173.214,10.2616 175.214,9.59495 177.5,9.5 Z"/></g>
<g><path style="opacity:0.608" fill="#7B8C56" d="M 168.5,12.5 C 166.898,14.0739 164.898,14.7406 162.5,14.5C 164.214,13.2616 166.214,12.595 168.5,12.5 Z"/></g>
<g><path style="opacity:0.737" fill="#7B8C56" d="M 162.5,14.5 C 161.365,16.2132 159.698,16.8799 157.5,16.5C 158.93,15.4625 160.597,14.7959 162.5,14.5 Z"/></g>
<g><path style="opacity:0.388" fill="#7B8C56" d="M 335.5,14.5 C 337.553,14.4021 339.22,15.0687 340.5,16.5C 338.447,16.5979 336.78,15.9313 335.5,14.5 Z"/></g>
<g><path style="opacity:0.416" fill="#7B8C56" d="M 340.5,16.5 C 345.017,17.0966 349.017,18.7633 352.5,21.5C 348.213,20.3517 344.213,18.685 340.5,16.5 Z"/></g>
<g><path style="opacity:0.878" fill="#7B8C56" d="M 157.5,16.5 C 155.165,19.1648 152.165,20.4982 148.5,20.5C 151.088,18.4082 154.088,17.0749 157.5,16.5 Z"/></g>
<g><path style="opacity:0.89" fill="#7B8C56" d="M 148.5,20.5 C 146.824,22.8337 144.491,23.8337 141.5,23.5C 143.509,21.9348 145.843,20.9348 148.5,20.5 Z"/></g>
<g><path style="opacity:0.224" fill="#7B8C56" d="M 365.5,27.5 C 367.027,27.427 368.027,28.0937 368.5,29.5C 366.973,29.573 365.973,28.9063 365.5,27.5 Z"/></g>
<g><path style="opacity:0.62" fill="#7B8C56" d="M 131.5,28.5 C 131.027,29.9063 130.027,30.573 128.5,30.5C 128.973,29.0937 129.973,28.427 131.5,28.5 Z"/></g>
<g><path style="opacity:0.224" fill="#7B8C56" d="M 372.5,31.5 C 374.674,31.7497 376.341,32.7497 377.5,34.5C 375.326,34.2503 373.659,33.2503 372.5,31.5 Z"/></g>
<g><path style="opacity:0.612" fill="#7B8C56" d="M 124.5,32.5 C 124.027,33.9063 123.027,34.573 121.5,34.5C 121.973,33.0937 122.973,32.427 124.5,32.5 Z"/></g>
<g><path style="opacity:0.6" fill="#7B8C56" d="M 119.5,35.5 C 119.027,36.9063 118.027,37.573 116.5,37.5C 116.973,36.0937 117.973,35.427 119.5,35.5 Z"/></g>
<g><path style="opacity:0.118" fill="#7B8C56" d="M 379.5,35.5 C 381.027,35.427 382.027,36.0937 382.5,37.5C 380.973,37.573 379.973,36.9063 379.5,35.5 Z"/></g>
<g><path style="opacity:0.643" fill="#7B8C56" d="M 116.5,37.5 C 116.027,38.9063 115.027,39.573 113.5,39.5C 113.973,38.0937 114.973,37.427 116.5,37.5 Z"/></g>
<g><path style="opacity:0.765" fill="#7B8C56" d="M 384.5,38.5 C 386.23,39.0256 387.564,40.0256 388.5,41.5C 386.368,41.4456 385.035,40.4456 384.5,38.5 Z"/></g>
<g><path style="opacity:0.506" fill="#7B8C56" d="M 113.5,39.5 C 111.966,41.369 109.966,42.7023 107.5,43.5C 108.802,41.1782 110.802,39.8449 113.5,39.5 Z"/></g>
<g><path style="opacity:0.62" fill="#7B8C56" d="M 107.5,43.5 C 107.027,44.9063 106.027,45.573 104.5,45.5C 104.973,44.0937 105.973,43.427 107.5,43.5 Z"/></g>
<g><path style="opacity:0.514" fill="#7B8C56" d="M 390.5,42.5 C 392.23,43.0256 393.564,44.0256 394.5,45.5C 392.368,45.4456 391.035,44.4456 390.5,42.5 Z"/></g>
<g><path style="opacity:0.529" fill="#7B8C56" d="M 104.5,45.5 C 103.738,47.2624 102.404,48.2624 100.5,48.5C 101.262,46.7376 102.596,45.7376 104.5,45.5 Z"/></g>
<g><path style="opacity:0.843" fill="#7B8C56" d="M 394.5,45.5 C 397.563,47.0252 400.23,49.0252 402.5,51.5C 399.039,50.4488 396.373,48.4488 394.5,45.5 Z"/></g>
<g><path style="opacity:0.584" fill="#7B8C56" d="M 100.5,48.5 C 99.7377,50.2624 98.4044,51.2624 96.5,51.5C 97.2623,49.7376 98.5956,48.7376 100.5,48.5 Z"/></g>
<g><path style="opacity:0.02" fill="#7B8C56" d="M 403.5,52.5 C 405.027,52.427 406.027,53.0937 406.5,54.5C 404.973,54.573 403.973,53.9063 403.5,52.5 Z"/></g>
<g><path style="opacity:0.749" fill="#7B8C56" d="M 96.5,51.5 C 95.4154,53.5869 93.7488,54.9202 91.5,55.5C 92.5846,53.4131 94.2512,52.0798 96.5,51.5 Z"/></g>
<g><path style="opacity:0.02" fill="#7B8C56" d="M 408.5,56.5 C 410.404,56.7376 411.738,57.7376 412.5,59.5C 410.596,59.2624 409.262,58.2624 408.5,56.5 Z"/></g>
<g><path style="opacity:0.659" fill="#7B8C56" d="M 91.5,55.5 C 89.7607,58.2427 87.4274,60.2427 84.5,61.5C 86.2393,58.7573 88.5726,56.7573 91.5,55.5 Z"/></g>
<g><path style="opacity:0.024" fill="#7B8C56" d="M 416.5,63.5 C 418.749,64.0798 420.415,65.4131 421.5,67.5C 419.251,66.9202 417.585,65.5869 416.5,63.5 Z"/></g>
<g><path style="opacity:0.984" fill="#7B8C56" d="M 421.5,67.5 C 423.167,68.5 424.5,69.8333 425.5,71.5C 422.858,71.5123 421.525,70.179 421.5,67.5 Z"/></g>
<g><path style="opacity:0.698" fill="#7B8C56" d="M 425.5,71.5 C 429.898,74.8947 433.564,78.8947 436.5,83.5C 432.102,80.1053 428.436,76.1053 425.5,71.5 Z"/></g>
<g><path style="opacity:0.659" fill="#7B8C56" d="M 84.5,61.5 C 77.1667,69.5 69.5,77.1667 61.5,84.5C 61.369,83.7611 61.5357,83.0944 62,82.5C 69.0888,74.9061 76.5888,67.9061 84.5,61.5 Z"/></g>
<g><path style="opacity:0.773" fill="#7B8C56" d="M 436.5,83.5 C 439.573,85.5691 441.906,88.2358 443.5,91.5C 440.427,89.4309 438.094,86.7642 436.5,83.5 Z"/></g>
<g><path style="opacity:0.655" fill="#7B8C56" d="M 61.5,84.5 C 60.2427,87.4274 58.2427,89.7607 55.5,91.5C 56.7573,88.5726 58.7573,86.2393 61.5,84.5 Z"/></g>
<g><path style="opacity:0.749" fill="#7B8C56" d="M 55.5,91.5 C 54.9202,93.7488 53.5869,95.4154 51.5,96.5C 52.0798,94.2512 53.4131,92.5846 55.5,91.5 Z"/></g>
<g><path style="opacity:0.643" fill="#7B8C56" d="M 443.5,91.5 C 445.262,92.2623 446.262,93.5956 446.5,95.5C 444.738,94.7377 443.738,93.4044 443.5,91.5 Z"/></g>
<g><path style="opacity:0.02" fill="#7B8C56" d="M 221.5,95.5 C 220.486,96.6737 219.153,97.3404 217.5,97.5C 218.287,95.8958 219.62,95.2291 221.5,95.5 Z"/></g>
<g><path style="opacity:0.447" fill="#7B8C56" d="M 252.5,94.5 C 255.716,94.3455 258.383,95.3455 260.5,97.5C 257.603,96.871 254.936,95.871 252.5,94.5 Z"/></g>
<g><path style="opacity:0.698" fill="#7B8C56" d="M 51.5,96.5 C 51.2624,98.4044 50.2624,99.7377 48.5,100.5C 48.7376,98.5956 49.7376,97.2623 51.5,96.5 Z"/></g>
<g><path style="opacity:0.043" fill="#7B8C56" d="M 217.5,97.5 C 216.486,98.6737 215.153,99.3404 213.5,99.5C 214.287,97.8958 215.62,97.2291 217.5,97.5 Z"/></g>
<g><path style="opacity:0.486" fill="#7B8C56" d="M 446.5,95.5 C 448.587,96.5846 449.92,98.2512 450.5,100.5C 448.413,99.4154 447.08,97.7488 446.5,95.5 Z"/></g>
<g><path style="opacity:1" fill="#7B8C56" d="M 210.5,101.5 C 208.858,102.803 207.191,104.136 205.5,105.5C 205.167,105.5 204.833,105.5 204.5,105.5C 204.759,101.932 206.759,100.599 210.5,101.5 Z"/></g>
<g><path style="opacity:0.549" fill="#7B8C56" d="M 266.5,100.5 C 268.404,100.738 269.738,101.738 270.5,103.5C 268.596,103.262 267.262,102.262 266.5,100.5 Z"/></g>
<g><path style="opacity:0.533" fill="#7B8C56" d="M 48.5,100.5 C 48.2624,102.404 47.2624,103.738 45.5,104.5C 45.7376,102.596 46.7376,101.262 48.5,100.5 Z"/></g>
<g><path style="opacity:0.427" fill="#7B8C56" d="M 450.5,100.5 C 452.262,101.262 453.262,102.596 453.5,104.5C 451.738,103.738 450.738,102.404 450.5,100.5 Z"/></g>
<g><path style="opacity:0.816" fill="#7B8C56" d="M 270.5,103.5 C 272.833,103.833 274.167,105.167 274.5,107.5C 272.833,106.5 271.5,105.167 270.5,103.5 Z"/></g>
<g><path style="opacity:0.412" fill="#7B8C56" d="M 45.5,104.5 C 45.573,106.027 44.9063,107.027 43.5,107.5C 43.427,105.973 44.0937,104.973 45.5,104.5 Z"/></g>
<g><path style="opacity:0.314" fill="#7B8C56" d="M 453.5,104.5 C 454.906,104.973 455.573,105.973 455.5,107.5C 454.094,107.027 453.427,106.027 453.5,104.5 Z"/></g>
<g><path style="opacity:0.02" fill="#7B8C56" d="M 204.5,105.5 C 204.833,105.5 205.167,105.5 205.5,105.5C 203.833,107.833 201.833,109.833 199.5,111.5C 200.419,108.911 202.086,106.911 204.5,105.5 Z"/></g>
<g><path style="opacity:0.396" fill="#7B8C56" d="M 455.5,107.5 C 456.906,107.973 457.573,108.973 457.5,110.5C 456.094,110.027 455.427,109.027 455.5,107.5 Z"/></g>
<g><path style="opacity:0.027" fill="#7B8C56" d="M 276.5,109.5 C 277.906,109.973 278.573,110.973 278.5,112.5C 277.094,112.027 276.427,111.027 276.5,109.5 Z"/></g>
<g><path style="opacity:0.988" fill="#7B8C56" d="M 43.5,107.5 C 42.7023,109.966 41.369,111.966 39.5,113.5C 39.8449,110.802 41.1782,108.802 43.5,107.5 Z"/></g>
<g><path style="opacity:0.024" fill="#7B8C56" d="M 199.5,111.5 C 198.833,112.833 197.833,113.833 196.5,114.5C 196.5,112.5 197.5,111.5 199.5,111.5 Z"/></g>
<g><path style="opacity:0.855" fill="#7B8C56" d="M 278.5,112.5 C 280.741,113.3 281.741,114.966 281.5,117.5C 280.263,116.035 279.263,114.368 278.5,112.5 Z"/></g>
<g><path style="opacity:0.353" fill="#7B8C56" d="M 457.5,110.5 C 458.906,110.973 459.573,111.973 459.5,113.5C 458.094,113.027 457.427,112.027 457.5,110.5 Z"/></g>
<g><path style="opacity:0.392" fill="#7B8C56" d="M 39.5,113.5 C 39.573,115.027 38.9063,116.027 37.5,116.5C 37.427,114.973 38.0937,113.973 39.5,113.5 Z"/></g>
<g><path style="opacity:0.298" fill="#7B8C56" d="M 459.5,113.5 C 460.906,113.973 461.573,114.973 461.5,116.5C 460.094,116.027 459.427,115.027 459.5,113.5 Z"/></g>
<g><path style="opacity:0.02" fill="#7B8C56" d="M 194.5,116.5 C 193.833,117.833 192.833,118.833 191.5,119.5C 191.5,117.5 192.5,116.5 194.5,116.5 Z"/></g>
<g><path style="opacity:0.333" fill="#7B8C56" d="M 37.5,116.5 C 37.573,118.027 36.9063,119.027 35.5,119.5C 35.427,117.973 36.0937,116.973 37.5,116.5 Z"/></g>
<g><path style="opacity:0.255" fill="#7B8C56" d="M 461.5,116.5 C 462.906,116.973 463.573,117.973 463.5,119.5C 462.094,119.027 461.427,118.027 461.5,116.5 Z"/></g>
<g><path style="opacity:0.294" fill="#7B8C56" d="M 34.5,121.5 C 34.573,123.027 33.9063,124.027 32.5,124.5C 32.427,122.973 33.0937,121.973 34.5,121.5 Z"/></g>
<g><path style="opacity:0.016" fill="#7B8C56" d="M 188.5,122.5 C 187.833,123.833 186.833,124.833 185.5,125.5C 185.5,123.5 186.5,122.5 188.5,122.5 Z"/></g>
<g><path style="opacity:0.992" fill="#7B8C56" d="M 464.5,121.5 C 465.89,122.899 466.89,124.566 467.5,126.5C 465.241,125.656 464.241,123.989 464.5,121.5 Z"/></g>
<g><path style="opacity:0.012" fill="#7B8C56" d="M 185.5,125.5 C 185.167,126.5 184.5,127.167 183.5,127.5C 183.5,126.167 184.167,125.5 185.5,125.5 Z"/></g>
<g><path style="opacity:0.016" fill="#7B8C56" d="M 183.5,127.5 C 182.833,128.833 181.833,129.833 180.5,130.5C 180.5,128.5 181.5,127.5 183.5,127.5 Z"/></g>
<g><path style="opacity:0.286" fill="#7B8C56" d="M 30.5,128.5 C 30.573,130.027 29.9063,131.027 28.5,131.5C 28.427,129.973 29.0937,128.973 30.5,128.5 Z"/></g>
<g><path style="opacity:0.243" fill="#7B8C56" d="M 469.5,130.5 C 470.906,130.973 471.573,131.973 471.5,133.5C 470.094,133.027 469.427,132.027 469.5,130.5 Z"/></g>
<g><path style="opacity:0.008" fill="#7B8C56" d="M 169.5,141.5 C 169.167,142.5 168.5,143.167 167.5,143.5C 167.5,142.167 168.167,141.5 169.5,141.5 Z"/></g>
<g><path style="opacity:0.067" fill="#7B8C56" d="M 283.5,121.5 C 284.958,123.932 286.125,126.599 287,129.5C 287.821,136.346 287.654,143.013 286.5,149.5C 287.12,139.958 286.12,130.625 283.5,121.5 Z"/></g>
<g><path style="opacity:0.89" fill="#7B8C56" d="M 23.5,141.5 C 23.8432,143.483 23.1765,144.817 21.5,145.5C 21.6596,143.847 22.3263,142.514 23.5,141.5 Z"/></g>
<g><path style="opacity:0.016" fill="#7B8C56" d="M 166.5,144.5 C 165.833,145.833 164.833,146.833 163.5,147.5C 163.5,145.5 164.5,144.5 166.5,144.5 Z"/></g>
<g><path style="opacity:0.016" fill="#7B8C56" d="M 163.5,147.5 C 162.5,149.167 161.167,150.5 159.5,151.5C 159.833,149.167 161.167,147.833 163.5,147.5 Z"/></g>
<g><path style="opacity:0.878" fill="#7B8C56" d="M 19.5,150.5 C 19.8337,153.491 18.8337,155.824 16.5,157.5C 16.9348,154.843 17.9348,152.509 19.5,150.5 Z"/></g>
<g><path style="opacity:0.016" fill="#7B8C56" d="M 158.5,152.5 C 157.833,153.833 156.833,154.833 155.5,155.5C 155.5,153.5 156.5,152.5 158.5,152.5 Z"/></g>
<g><path style="opacity:0.78" fill="#7B8C56" d="M 479.5,150.5 C 482.6,156.121 484.933,162.121 486.5,168.5C 483.083,162.987 480.75,156.987 479.5,150.5 Z"/></g>
<g><path style="opacity:0.004" fill="#7B8C56" d="M 153.5,157.5 C 153.167,158.5 152.5,159.167 151.5,159.5C 151.5,158.167 152.167,157.5 153.5,157.5 Z"/></g>
<g><path style="opacity:0.714" fill="#7B8C56" d="M 286.5,149.5 C 286.975,153.416 285.975,156.749 283.5,159.5C 284.13,155.952 285.13,152.619 286.5,149.5 Z"/></g>
<g><path style="opacity:0.725" fill="#7B8C56" d="M 16.5,157.5 C 16.8799,159.698 16.2132,161.365 14.5,162.5C 14.7959,160.597 15.4625,158.93 16.5,157.5 Z"/></g>
<g><path style="opacity:0.016" fill="#7B8C56" d="M 147.5,163.5 C 146.5,165.167 145.167,166.5 143.5,167.5C 143.833,165.167 145.167,163.833 147.5,163.5 Z"/></g>
<g><path style="opacity:0.243" fill="#7B8C56" d="M 282.5,162.5 C 282.573,164.027 281.906,165.027 280.5,165.5C 280.427,163.973 281.094,162.973 282.5,162.5 Z"/></g>
<g><path style="opacity:0.616" fill="#7B8C56" d="M 14.5,162.5 C 14.7406,164.898 14.0739,166.898 12.5,168.5C 12.595,166.214 13.2616,164.214 14.5,162.5 Z"/></g>
<g><path style="opacity:0.494" fill="#7B8C56" d="M 279.5,167.5 C 279.443,168.609 279.11,169.609 278.5,170.5C 278.167,170.5 277.833,170.5 277.5,170.5C 277.427,168.973 278.094,167.973 279.5,167.5 Z"/></g>
<g><path style="opacity:0.635" fill="#7B8C56" d="M 12.5,168.5 C 9.66831,179.645 6.66831,190.645 3.5,201.5C 5.11743,190.022 8.11743,179.022 12.5,168.5 Z"/></g>
<g><path style="opacity:0.557" fill="#7B8C56" d="M 486.5,168.5 C 488.61,172.502 489.943,176.835 490.5,181.5C 488.39,177.498 487.057,173.165 486.5,168.5 Z"/></g>
<g><path style="opacity:0.004" fill="#7B8C56" d="M 137.5,173.5 C 137.167,174.5 136.5,175.167 135.5,175.5C 135.5,174.167 136.167,173.5 137.5,173.5 Z"/></g>
<g><path style="opacity:0.008" fill="#7B8C56" d="M 133.5,177.5 C 132.089,179.914 130.089,181.581 127.5,182.5C 128.911,180.086 130.911,178.419 133.5,177.5 Z"/></g>
<g><path style="opacity:0.439" fill="#7B8C56" d="M 277.5,170.5 C 270.76,178.745 263.427,186.578 255.5,194C 298.335,194.167 341.002,194.667 383.5,195.5C 340.154,196.161 297.154,195.495 254.5,193.5C 261.833,185.5 269.5,177.833 277.5,170.5 Z"/></g>
<g><path style="opacity:1" fill="#7B8C56" d="M 402.5,200.5 C 400.081,198.138 397.081,197.138 393.5,197.5C 391.901,197.768 390.568,197.434 389.5,196.5C 387.735,195.539 385.735,195.205 383.5,195.5C 341.002,194.667 298.335,194.167 255.5,194C 263.427,186.578 270.76,178.745 277.5,170.5C 277.833,170.5 278.167,170.5 278.5,170.5C 280.854,171.494 281.854,170.494 281.5,167.5C 283.346,167.222 284.68,167.889 285.5,169.5C 284.504,171.816 282.837,173.483 280.5,174.5C 281.32,176.111 282.654,176.778 284.5,176.5C 284.716,172.376 285.716,171.876 287.5,175C 286.029,178.12 284.195,180.954 282,183.5C 281.091,180.72 279.925,178.054 278.5,175.5C 276.59,174.288 276.256,174.621 277.5,176.5C 273.159,181.017 268.826,185.517 264.5,190C 268.137,191.423 270.804,190.089 272.5,186C 271.098,184.658 271.431,183.824 273.5,183.5C 275.39,184.612 277.39,185.446 279.5,186C 277.849,187.943 275.849,189.443 273.5,190.5C 278,192.083 281.834,191.083 285,187.5C 287.375,187.818 288.542,189.151 288.5,191.5C 321.168,191.333 353.835,191.5 386.5,192C 385.833,192.333 385.167,192.667 384.5,193C 389.453,193.995 394.453,194.662 399.5,195C 399.167,195.333 398.833,195.667 398.5,196C 400.844,196.837 402.844,198.171 404.5,200C 403.906,200.464 403.239,200.631 402.5,200.5 Z"/></g>
<g><path style="opacity:0.322" fill="#7B8C56" d="M 490.5,181.5 C 491.924,183.515 492.59,185.848 492.5,188.5C 491.076,186.485 490.41,184.152 490.5,181.5 Z"/></g>
<g><path style="opacity:1" fill="#7B8C56" d="M 124.5,185.5 C 120.867,190.8 116.534,195.467 111.5,199.5C 110.167,199.5 109.5,200.167 109.5,201.5C 109.167,201.5 108.833,201.5 108.5,201.5C 107.965,198.762 108.965,196.928 111.5,196C 109.038,194.15 109.538,192.983 113,192.5C 113.972,190.695 115.139,189.028 116.5,187.5C 116.291,186.914 115.957,186.414 115.5,186C 118.482,185.502 121.482,185.335 124.5,185.5 Z"/></g>
<g><path style="opacity:0.07" fill="#7B8C56" d="M 254.5,193.5 C 297.154,195.495 340.154,196.161 383.5,195.5C 385.735,195.205 387.735,195.539 389.5,196.5C 344.167,196.5 298.833,196.5 253.5,196.5C 253.263,195.209 253.596,194.209 254.5,193.5 Z"/></g>
<g><path style="opacity:0.698" fill="#7B8C56" d="M 393.5,197.5 C 397.081,197.138 400.081,198.138 402.5,200.5C 399.33,199.735 396.33,198.735 393.5,197.5 Z"/></g>
<g><path style="opacity:0.004" fill="#7B8C56" d="M 111.5,199.5 C 111.167,200.5 110.5,201.167 109.5,201.5C 109.5,200.167 110.167,199.5 111.5,199.5 Z"/></g>
<g><path style="opacity:0.263" fill="#7B8C56" d="M 493.5,193.5 C 494.768,195.905 495.435,198.572 495.5,201.5C 494.833,200.5 494.167,199.5 493.5,198.5C 493.5,196.833 493.5,195.167 493.5,193.5 Z"/></g>
<g><path style="opacity:0.004" fill="#7B8C56" d="M 108.5,201.5 C 108.5,203.5 107.5,204.5 105.5,204.5C 106.167,203.167 107.167,202.167 108.5,201.5 Z"/></g>
<g><path style="opacity:0.255" fill="#7B8C56" d="M 406.5,202.5 C 408.027,202.427 409.027,203.094 409.5,204.5C 407.973,204.573 406.973,203.906 406.5,202.5 Z"/></g>
<g><path style="opacity:0.008" fill="#7B8C56" d="M 105.5,204.5 C 105.5,205.833 104.833,206.5 103.5,206.5C 103.833,205.5 104.5,204.833 105.5,204.5 Z"/></g>
<g><path style="opacity:0.294" fill="#7B8C56" d="M 409.5,204.5 C 411.027,204.427 412.027,205.094 412.5,206.5C 410.973,206.573 409.973,205.906 409.5,204.5 Z"/></g>
<g><path style="opacity:0.004" fill="#7B8C56" d="M 103.5,207.5 C 103.167,208.5 102.5,209.167 101.5,209.5C 101.5,208.167 102.167,207.5 103.5,207.5 Z"/></g>
<g><path style="opacity:0.533" fill="#7B8C56" d="M 412.5,206.5 C 416.5,208.5 419.5,211.5 421.5,215.5C 418.167,212.833 415.167,209.833 412.5,206.5 Z"/></g>
<g><path style="opacity:0.004" fill="#7B8C56" d="M 100.5,209.5 C 100.5,211.5 99.5,212.5 97.5,212.5C 98.1667,211.167 99.1667,210.167 100.5,209.5 Z"/></g>
<g><path style="opacity:0.004" fill="#7B8C56" d="M 97.5,212.5 C 97.5,214.5 96.5,215.5 94.5,215.5C 95.1667,214.167 96.1667,213.167 97.5,212.5 Z"/></g>
<g><path style="opacity:0.514" fill="#7B8C56" d="M 496.5,207.5 C 497.709,211.618 498.376,215.951 498.5,220.5C 496.946,216.433 496.28,212.1 496.5,207.5 Z"/></g>
<g><path style="opacity:0.004" fill="#7B8C56" d="M 91.5,218.5 C 91.5,219.833 90.8333,220.5 89.5,220.5C 89.8333,219.5 90.5,218.833 91.5,218.5 Z"/></g>
<g><path style="opacity:0.176" fill="#7B8C56" d="M 423.5,217.5 C 424.906,217.973 425.573,218.973 425.5,220.5C 424.094,220.027 423.427,219.027 423.5,217.5 Z"/></g>
<g><path style="opacity:0.004" fill="#7B8C56" d="M 88.5,221.5 C 88.5,222.833 87.8333,223.5 86.5,223.5C 86.8333,222.5 87.5,221.833 88.5,221.5 Z"/></g>
<g><path style="opacity:0.027" fill="#7B8C56" d="M 83.5,226.5 C 83.573,228.027 82.9063,229.027 81.5,229.5C 81.427,227.973 82.0937,226.973 83.5,226.5 Z"/></g>
<g><path style="opacity:0.392" fill="#7B8C56" d="M 77.5,235.5 C 76.2876,240.103 75.2876,244.769 74.5,249.5C 75.3844,253.473 76.051,257.473 76.5,261.5C 73.0947,254.511 72.5947,247.178 75,239.5C 75.2004,237.68 76.0337,236.347 77.5,235.5 Z"/></g>
<g><path style="opacity:0.353" fill="#7B8C56" d="M 426.5,222.5 C 430.61,228.075 433.11,234.408 434,241.5C 434.667,246.833 434.667,252.167 434,257.5C 433.79,259.058 433.29,260.391 432.5,261.5C 434.72,247.823 432.72,234.823 426.5,222.5 Z"/></g>
<g><path style="opacity:0.757" fill="#7B8C56" d="M 431.5,265.5 C 431.834,268.491 430.834,270.824 428.5,272.5C 428.935,269.843 429.935,267.509 431.5,265.5 Z"/></g>
<g><path style="opacity:0.525" fill="#7B8C56" d="M 79.5,267.5 C 81.5869,268.585 82.9202,270.251 83.5,272.5C 81.4131,271.415 80.0798,269.749 79.5,267.5 Z"/></g>
<g><path style="opacity:0.561" fill="#7B8C56" d="M 425.5,278.5 C 425.573,280.027 424.906,281.027 423.5,281.5C 423.427,279.973 424.094,278.973 425.5,278.5 Z"/></g>
<g><path style="opacity:0.502" fill="#7B8C56" d="M 423.5,281.5 C 422.243,284.427 420.243,286.761 417.5,288.5C 418.757,285.573 420.757,283.239 423.5,281.5 Z"/></g>
<g><path style="opacity:1" fill="#7B8C56" d="M 493.5,198.5 C 494.167,199.5 494.833,200.5 495.5,201.5C 496.341,203.379 496.675,205.379 496.5,207.5C 496.28,212.1 496.946,216.433 498.5,220.5C 498.328,221.492 498.662,222.158 499.5,222.5C 499.5,240.5 499.5,258.5 499.5,276.5C 499.167,276.5 498.833,276.5 498.5,276.5C 496.422,286.304 494.755,296.304 493.5,306.5C 493.768,308.099 493.434,309.432 492.5,310.5C 490.517,313.799 489.517,317.466 489.5,321.5C 488.313,323.072 487.313,324.739 486.5,326.5C 486.189,320.71 487.523,315.377 490.5,310.5C 489.094,307.663 488.261,304.663 488,301.5C 487.675,297.33 487.509,293.33 487.5,289.5C 489.644,286.907 491.811,286.907 494,289.5C 494.997,285.015 495.83,280.515 496.5,276C 496.435,273.775 496.102,271.608 495.5,269.5C 498.779,263.326 499.113,257.16 496.5,251C 497.852,248.706 498.519,246.206 498.5,243.5C 497.133,228.447 495.466,213.447 493.5,198.5 Z"/></g>
<g><path style="opacity:0.475" fill="#7B8C56" d="M 417.5,288.5 C 416.415,290.587 414.749,291.92 412.5,292.5C 413.585,290.413 415.251,289.08 417.5,288.5 Z"/></g>
<g><path style="opacity:0.227" fill="#7B8C56" d="M 498.5,276.5 C 498.096,286.834 496.429,296.834 493.5,306.5C 494.755,296.304 496.422,286.304 498.5,276.5 Z"/></g>
<g><path style="opacity:0.463" fill="#7B8C56" d="M 412.5,292.5 C 412.027,293.906 411.027,294.573 409.5,294.5C 409.973,293.094 410.973,292.427 412.5,292.5 Z"/></g>
<g><path style="opacity:0.518" fill="#7B8C56" d="M 409.5,294.5 C 409.167,295.167 408.833,295.833 408.5,296.5C 407.833,296.5 407.167,296.5 406.5,296.5C 406.973,295.094 407.973,294.427 409.5,294.5 Z"/></g>
<g><path style="opacity:0.514" fill="#7B8C56" d="M 404.5,297.5 C 403.942,298.79 402.942,299.623 401.5,300C 397.622,301.47 393.622,302.303 389.5,302.5C 394.459,301.003 399.459,299.336 404.5,297.5 Z"/></g>
<g><path style="opacity:0.058" fill="#7B8C56" d="M 389.5,302.5 C 387.735,303.461 385.735,303.795 383.5,303.5C 340.154,302.839 297.154,303.505 254.5,305.5C 253.596,304.791 253.263,303.791 253.5,302.5C 298.833,302.5 344.167,302.5 389.5,302.5 Z"/></g>
<g><path style="opacity:0.58" fill="#7B8C56" d="M 383.5,303.5 C 341.002,304.333 298.335,304.833 255.5,305C 256.044,305.717 256.711,306.217 257.5,306.5C 265.224,314.22 272.557,322.22 279.5,330.5C 270.833,322.5 262.5,314.167 254.5,305.5C 297.154,303.505 340.154,302.839 383.5,303.5 Z"/></g>
<g><path style="opacity:1" fill="#7B8C56" d="M 406.5,296.5 C 407.167,296.5 407.833,296.5 408.5,296.5C 410.253,298.223 412.253,299.723 414.5,301C 411.696,301.46 409.029,300.96 406.5,299.5C 404.038,300.364 401.871,301.697 400,303.5C 399.275,302.941 398.442,302.608 397.5,302.5C 394.965,304.537 392.298,306.37 389.5,308C 391.595,308.556 391.762,309.056 390,309.5C 387.774,309.022 385.608,308.355 383.5,307.5C 342.319,306.82 301.152,306.153 260,305.5C 258.93,305.528 258.097,305.861 257.5,306.5C 256.711,306.217 256.044,305.717 255.5,305C 298.335,304.833 341.002,304.333 383.5,303.5C 385.735,303.795 387.735,303.461 389.5,302.5C 393.622,302.303 397.622,301.47 401.5,300C 402.942,299.623 403.942,298.79 404.5,297.5C 404.842,296.662 405.508,296.328 406.5,296.5 Z"/></g>
<g><path style="opacity:0.208" fill="#7B8C56" d="M -0.5,263.5 C 1.79329,289.024 7.12662,314.024 15.5,338.5C 7.34554,318.548 2.01221,297.882 -0.5,276.5C -0.5,272.167 -0.5,267.833 -0.5,263.5 Z"/></g>
<g><path style="opacity:0.067" fill="#7B8C56" d="M 492.5,310.5 C 492.074,314.427 491.074,318.093 489.5,321.5C 489.517,317.466 490.517,313.799 492.5,310.5 Z"/></g>
<g><path style="opacity:0.384" fill="#7B8C56" d="M 489.5,321.5 C 488.269,327.532 486.269,333.199 483.5,338.5C 484.5,334.5 485.5,330.5 486.5,326.5C 487.313,324.739 488.313,323.072 489.5,321.5 Z"/></g>
<g><path style="opacity:0.835" fill="#7B8C56" d="M 279.5,330.5 C 281.446,331.035 282.446,332.368 282.5,334.5C 281.026,333.564 280.026,332.23 279.5,330.5 Z"/></g>
<g><path style="opacity:0.396" fill="#7B8C56" d="M 150.5,338.5 C 151.906,338.973 152.573,339.973 152.5,341.5C 151.094,341.027 150.427,340.027 150.5,338.5 Z"/></g>
<g><path style="opacity:0.353" fill="#7B8C56" d="M 15.5,338.5 C 16.9313,339.78 17.5979,341.447 17.5,343.5C 16.0687,342.22 15.4021,340.553 15.5,338.5 Z"/></g>
<g><path style="opacity:0.2" fill="#7B8C56" d="M 284.5,338.5 C 285.931,339.78 286.598,341.447 286.5,343.5C 285.069,342.22 284.402,340.553 284.5,338.5 Z"/></g>
<g><path style="opacity:0.353" fill="#7B8C56" d="M 17.5,343.5 C 18.9313,344.78 19.5979,346.447 19.5,348.5C 18.0687,347.22 17.4021,345.553 17.5,343.5 Z"/></g>
<g><path style="opacity:0.357" fill="#7B8C56" d="M 481.5,343.5 C 481.598,345.553 480.931,347.22 479.5,348.5C 479.402,346.447 480.069,344.78 481.5,343.5 Z"/></g>
<g><path style="opacity:0.157" fill="#7B8C56" d="M 286.5,343.5 C 287.117,343.611 287.617,343.944 288,344.5C 288.495,346.473 288.662,348.473 288.5,350.5C 287.388,348.401 286.721,346.067 286.5,343.5 Z"/></g>
<g><path style="opacity:0.4" fill="#7B8C56" d="M 163.5,351.5 C 164.906,351.973 165.573,352.973 165.5,354.5C 164.094,354.027 163.427,353.027 163.5,351.5 Z"/></g>
<g><path style="opacity:0.271" fill="#7B8C56" d="M 20.5,350.5 C 22.2927,352.426 23.2927,354.759 23.5,357.5C 21.7073,355.574 20.7073,353.241 20.5,350.5 Z"/></g>
<g><path style="opacity:0.271" fill="#7B8C56" d="M 479.5,348.5 C 479.065,351.157 478.065,353.491 476.5,355.5C 476.552,352.654 477.552,350.32 479.5,348.5 Z"/></g>
<g><path style="opacity:0.49" fill="#7B8C56" d="M 288.5,351.5 C 289.117,351.611 289.617,351.944 290,352.5C 290.943,358.436 290.443,364.103 288.5,369.5C 288.951,363.649 288.951,357.649 288.5,351.5 Z"/></g>
<g><path style="opacity:0.145" fill="#7B8C56" d="M 29.5,369.5 C 30.9063,369.973 31.573,370.973 31.5,372.5C 30.0937,372.027 29.427,371.027 29.5,369.5 Z"/></g>
<g><path style="opacity:0.412" fill="#7B8C56" d="M 183.5,371.5 C 185.914,372.911 187.581,374.911 188.5,377.5C 186.086,376.089 184.419,374.089 183.5,371.5 Z"/></g>
<g><path style="opacity:0.204" fill="#7B8C56" d="M 32.5,374.5 C 34.2503,375.659 35.2503,377.326 35.5,379.5C 33.7497,378.341 32.7497,376.674 32.5,374.5 Z"/></g>
<g><path style="opacity:0.412" fill="#7B8C56" d="M 189.5,377.5 C 192.573,379.569 194.906,382.236 196.5,385.5C 193.427,383.431 191.094,380.764 189.5,377.5 Z"/></g>
<g><path style="opacity:0.129" fill="#7B8C56" d="M 465.5,376.5 C 465.573,378.027 464.906,379.027 463.5,379.5C 463.427,377.973 464.094,376.973 465.5,376.5 Z"/></g>
<g><path style="opacity:0.792" fill="#7B8C56" d="M 36.5,381.5 C 38.7964,382.733 40.1298,384.733 40.5,387.5C 38.684,385.882 37.3507,383.882 36.5,381.5 Z"/></g>
<g><path style="opacity:0.169" fill="#7B8C56" d="M 463.5,379.5 C 463.573,381.027 462.906,382.027 461.5,382.5C 461.427,380.973 462.094,379.973 463.5,379.5 Z"/></g>
<g><path style="opacity:0.376" fill="#7B8C56" d="M 286.5,377.5 C 286.834,380.491 285.834,382.824 283.5,384.5C 284.264,381.982 285.264,379.649 286.5,377.5 Z"/></g>
<g><path style="opacity:0.416" fill="#7B8C56" d="M 197.5,385.5 C 200.573,387.569 202.906,390.236 204.5,393.5C 201.427,391.431 199.094,388.764 197.5,385.5 Z"/></g>
<g><path style="opacity:0.278" fill="#7B8C56" d="M 283.5,384.5 C 283.573,386.027 282.906,387.027 281.5,387.5C 281.427,385.973 282.094,384.973 283.5,384.5 Z"/></g>
<g><path style="opacity:0.082" fill="#7B8C56" d="M 460.5,384.5 C 460.573,386.027 459.906,387.027 458.5,387.5C 458.427,385.973 459.094,384.973 460.5,384.5 Z"/></g>
<g><path style="opacity:0.106" fill="#7B8C56" d="M 458.5,387.5 C 458.573,389.027 457.906,390.027 456.5,390.5C 456.427,388.973 457.094,387.973 458.5,387.5 Z"/></g>
<g><path style="opacity:0.459" fill="#7B8C56" d="M 280.5,389.5 C 279.92,391.749 278.587,393.415 276.5,394.5C 277.08,392.251 278.413,390.585 280.5,389.5 Z"/></g>
<g><path style="opacity:0.043" fill="#7B8C56" d="M 455.5,391.5 C 455.573,393.027 454.906,394.027 453.5,394.5C 453.427,392.973 454.094,391.973 455.5,391.5 Z"/></g>
<g><path style="opacity:0.761" fill="#7B8C56" d="M 44.5,393.5 C 46.4456,394.035 47.4456,395.368 47.5,397.5C 46.0256,396.564 45.0256,395.23 44.5,393.5 Z"/></g>
<g><path style="opacity:0.031" fill="#7B8C56" d="M 453.5,394.5 C 453.573,396.027 452.906,397.027 451.5,397.5C 451.427,395.973 452.094,394.973 453.5,394.5 Z"/></g>
<g><path style="opacity:0.016" fill="#7B8C56" d="M 207.5,396.5 C 209.404,396.738 210.738,397.738 211.5,399.5C 209.596,399.262 208.262,398.262 207.5,396.5 Z"/></g>
<g><path style="opacity:0.482" fill="#7B8C56" d="M 274.5,396.5 C 273.415,398.587 271.749,399.92 269.5,400.5C 270.585,398.413 272.251,397.08 274.5,396.5 Z"/></g>
<g><path style="opacity:0.016" fill="#7B8C56" d="M 47.5,397.5 C 48.9063,397.973 49.573,398.973 49.5,400.5C 48.0937,400.027 47.427,399.027 47.5,397.5 Z"/></g>
<g><path style="opacity:0.02" fill="#7B8C56" d="M 451.5,397.5 C 451.262,399.404 450.262,400.738 448.5,401.5C 448.738,399.596 449.738,398.262 451.5,397.5 Z"/></g>
<g><path style="opacity:0.161" fill="#7B8C56" d="M 211.5,399.5 C 213.027,399.427 214.027,400.094 214.5,401.5C 212.973,401.573 211.973,400.906 211.5,399.5 Z"/></g>
<g><path style="opacity:0.675" fill="#7B8C56" d="M 269.5,400.5 C 269.027,401.906 268.027,402.573 266.5,402.5C 266.973,401.094 267.973,400.427 269.5,400.5 Z"/></g>
<g><path style="opacity:0.02" fill="#7B8C56" d="M 51.5,402.5 C 52.9063,402.973 53.573,403.973 53.5,405.5C 52.0937,405.027 51.427,404.027 51.5,402.5 Z"/></g>
<g><path style="opacity:0.847" fill="#7B8C56" d="M 216.5,402.5 C 226.867,407.618 237.867,409.618 249.5,408.5C 238.945,410.499 228.612,409.332 218.5,405C 217.244,404.583 216.577,403.75 216.5,402.5 Z"/></g>
<g><path style="opacity:0.996" fill="#7B8C56" d="M 266.5,402.5 C 264.91,404.821 262.577,405.821 259.5,405.5C 261.649,404.264 263.982,403.264 266.5,402.5 Z"/></g>
<g><path style="opacity:0.02" fill="#7B8C56" d="M 447.5,402.5 C 447.573,404.027 446.906,405.027 445.5,405.5C 445.427,403.973 446.094,402.973 447.5,402.5 Z"/></g>
<g><path style="opacity:0.569" fill="#7B8C56" d="M 257.5,406.5 C 255.162,408.04 252.495,408.706 249.5,408.5C 251.905,407.232 254.572,406.565 257.5,406.5 Z"/></g>
<g><path style="opacity:0.027" fill="#7B8C56" d="M 55.5,407.5 C 56.9063,407.973 57.573,408.973 57.5,410.5C 56.0937,410.027 55.427,409.027 55.5,407.5 Z"/></g>
<g><path style="opacity:0.031" fill="#7B8C56" d="M 443.5,407.5 C 443.573,409.027 442.906,410.027 441.5,410.5C 441.427,408.973 442.094,407.973 443.5,407.5 Z"/></g>
<g><path style="opacity:0.392" fill="#7B8C56" d="M 60.5,414.5 C 63.1667,415.167 64.8333,416.833 65.5,419.5C 63.5,418.167 61.8333,416.5 60.5,414.5 Z"/></g>
<g><path style="opacity:0.094" fill="#7B8C56" d="M 437.5,415.5 C 436.5,417.167 435.167,418.5 433.5,419.5C 433.833,417.167 435.167,415.833 437.5,415.5 Z"/></g>
<g><path style="opacity:0.984" fill="#7B8C56" d="M 65.5,419.5 C 68.179,419.525 69.5123,420.858 69.5,423.5C 67.8333,422.5 66.5,421.167 65.5,419.5 Z"/></g>
<g><path style="opacity:1" fill="#7B8C56" d="M 69.5,423.5 C 72.179,423.525 73.5123,424.858 73.5,427.5C 71.8333,426.5 70.5,425.167 69.5,423.5 Z"/></g>
<g><path style="opacity:1" fill="#7B8C56" d="M 431.5,421.5 C 427.167,426.5 422.5,431.167 417.5,435.5C 417.5,434.167 417.5,432.833 417.5,431.5C 418.5,431.5 419.5,431.5 420.5,431.5C 422.275,429.365 422.942,427.031 422.5,424.5C 424.467,425.682 425.8,425.015 426.5,422.5C 427.086,422.709 427.586,423.043 428,423.5C 428.335,420.81 429.501,420.143 431.5,421.5 Z"/></g>
<g><path style="opacity:0.992" fill="#7B8C56" d="M 73.5,427.5 C 76.179,427.525 77.5123,428.858 77.5,431.5C 75.8333,430.5 74.5,429.167 73.5,427.5 Z"/></g>
<g><path style="opacity:0.592" fill="#7B8C56" d="M 79.5,433.5 C 82.0892,434.419 84.0892,436.086 85.5,438.5C 82.9108,437.581 80.9108,435.914 79.5,433.5 Z"/></g>
<g><path style="opacity:0.02" fill="#7B8C56" d="M 417.5,435.5 C 417.027,436.906 416.027,437.573 414.5,437.5C 414.973,436.094 415.973,435.427 417.5,435.5 Z"/></g>
<g><path style="opacity:0.498" fill="#7B8C56" d="M 85.5,438.5 C 88.0892,439.419 90.0892,441.086 91.5,443.5C 88.9108,442.581 86.9108,440.914 85.5,438.5 Z"/></g>
<g><path style="opacity:0.718" fill="#7B8C56" d="M 91.5,443.5 C 93.7488,444.08 95.4154,445.413 96.5,447.5C 94.2512,446.92 92.5846,445.587 91.5,443.5 Z"/></g>
<g><path style="opacity:0.016" fill="#7B8C56" d="M 405.5,445.5 C 405.027,446.906 404.027,447.573 402.5,447.5C 402.973,446.094 403.973,445.427 405.5,445.5 Z"/></g>
<g><path style="opacity:0.424" fill="#7B8C56" d="M 96.5,447.5 C 98.7488,448.08 100.415,449.413 101.5,451.5C 99.2512,450.92 97.5846,449.587 96.5,447.5 Z"/></g>
<g><path style="opacity:0.051" fill="#7B8C56" d="M 401.5,448.5 C 400.738,450.262 399.404,451.262 397.5,451.5C 398.262,449.738 399.596,448.738 401.5,448.5 Z"/></g>
<g><path style="opacity:0.329" fill="#7B8C56" d="M 101.5,451.5 C 103.027,451.427 104.027,452.094 104.5,453.5C 102.973,453.573 101.973,452.906 101.5,451.5 Z"/></g>
<g><path style="opacity:0.039" fill="#7B8C56" d="M 397.5,451.5 C 397.027,452.906 396.027,453.573 394.5,453.5C 394.973,452.094 395.973,451.427 397.5,451.5 Z"/></g>
<g><path style="opacity:0.408" fill="#7B8C56" d="M 104.5,453.5 C 106.027,453.427 107.027,454.094 107.5,455.5C 105.973,455.573 104.973,454.906 104.5,453.5 Z"/></g>
<g><path style="opacity:0.486" fill="#7B8C56" d="M 107.5,455.5 C 109.404,455.738 110.738,456.738 111.5,458.5C 109.596,458.262 108.262,457.262 107.5,455.5 Z"/></g>
<g><path style="opacity:0.012" fill="#7B8C56" d="M 390.5,456.5 C 390.027,457.906 389.027,458.573 387.5,458.5C 387.973,457.094 388.973,456.427 390.5,456.5 Z"/></g>
<g><path style="opacity:0.992" fill="#7B8C56" d="M 387.5,458.5 C 386.101,459.89 384.434,460.89 382.5,461.5C 383.09,460.234 383.59,458.901 384,457.5C 385.011,458.337 386.178,458.67 387.5,458.5 Z"/></g>
<g><path style="opacity:0.208" fill="#7B8C56" d="M 111.5,458.5 C 113.027,458.427 114.027,459.094 114.5,460.5C 112.973,460.573 111.973,459.906 111.5,458.5 Z"/></g>
<g><path style="opacity:0.337" fill="#7B8C56" d="M 116.5,461.5 C 118.027,461.427 119.027,462.094 119.5,463.5C 117.973,463.573 116.973,462.906 116.5,461.5 Z"/></g>
<g><path style="opacity:0.208" fill="#7B8C56" d="M 119.5,463.5 C 121.027,463.427 122.027,464.094 122.5,465.5C 120.973,465.573 119.973,464.906 119.5,463.5 Z"/></g>
<g><path style="opacity:0.208" fill="#7B8C56" d="M 379.5,463.5 C 378.341,465.25 376.674,466.25 374.5,466.5C 375.659,464.75 377.326,463.75 379.5,463.5 Z"/></g>
<g><path style="opacity:0.224" fill="#7B8C56" d="M 126.5,467.5 C 128.027,467.427 129.027,468.094 129.5,469.5C 127.973,469.573 126.973,468.906 126.5,467.5 Z"/></g>
<g><path style="opacity:0.004" fill="#7B8C56" d="M 372.5,467.5 C 372.027,468.906 371.027,469.573 369.5,469.5C 369.973,468.094 370.973,467.427 372.5,467.5 Z"/></g>
<g><path style="opacity:0.835" fill="#7B8C56" d="M 141.5,475.5 C 143.483,475.157 144.817,475.824 145.5,477.5C 143.847,477.34 142.514,476.674 141.5,475.5 Z"/></g>
<g><path style="opacity:0.831" fill="#7B8C56" d="M 150.5,479.5 C 153.491,479.166 155.824,480.166 157.5,482.5C 154.843,482.065 152.509,481.065 150.5,479.5 Z"/></g>
<g><path style="opacity:0.361" fill="#7B8C56" d="M 352.5,477.5 C 349.912,479.625 346.912,480.958 343.5,481.5C 346.088,479.375 349.088,478.042 352.5,477.5 Z"/></g>
<g><path style="opacity:0.694" fill="#7B8C56" d="M 157.5,482.5 C 159.698,482.12 161.365,482.787 162.5,484.5C 160.597,484.204 158.93,483.537 157.5,482.5 Z"/></g>
<g><path style="opacity:0.235" fill="#7B8C56" d="M 343.5,481.5 C 342.22,482.931 340.553,483.598 338.5,483.5C 339.78,482.069 341.447,481.402 343.5,481.5 Z"/></g>
<g><path style="opacity:0.039" fill="#7B8C56" d="M 338.5,483.5 C 335.203,485.601 331.537,486.935 327.5,487.5C 330.797,485.399 334.463,484.065 338.5,483.5 Z"/></g>
<g><path style="opacity:0.596" fill="#7B8C56" d="M 165.5,485.5 C 169.915,485.861 173.915,487.194 177.5,489.5C 173.216,488.739 169.216,487.405 165.5,485.5 Z"/></g>
<g><path style="opacity:0.216" fill="#7B8C56" d="M 327.5,487.5 C 325.786,488.738 323.786,489.405 321.5,489.5C 323.102,487.926 325.102,487.259 327.5,487.5 Z"/></g>
<g><path style="opacity:0.616" fill="#7B8C56" d="M 177.5,489.5 C 181.534,489.517 185.201,490.517 188.5,492.5C 184.573,492.074 180.907,491.074 177.5,489.5 Z"/></g>
<g><path style="opacity:0.267" fill="#7B8C56" d="M 188.5,492.5 C 191.495,492.294 194.162,492.96 196.5,494.5C 193.572,494.435 190.905,493.768 188.5,492.5 Z"/></g>
<g><path style="opacity:0.557" fill="#7B8C56" d="M 207.5,496.5 C 212.1,496.28 216.433,496.946 220.5,498.5C 215.951,498.376 211.618,497.709 207.5,496.5 Z"/></g>
<g><path style="opacity:0.149" fill="#7B8C56" d="M 321.5,489.5 C 307.114,494.119 292.448,497.453 277.5,499.5C 272.833,499.5 268.167,499.5 263.5,499.5C 282.936,497.482 302.269,494.149 321.5,489.5 Z"/></g>
</svg>
