<?xml version="1.0" encoding="UTF-8"?>
<!DOCTYPE svg PUBLIC "-//W3C//DTD SVG 1.1//EN" "http://www.w3.org/Graphics/SVG/1.1/DTD/svg11.dtd">
<svg xmlns="http://www.w3.org/2000/svg" version="1.1" width="500px" height="500px" style="shape-rendering:geometricPrecision; text-rendering:geometricPrecision; image-rendering:optimizeQuality; fill-rule:evenodd; clip-rule:evenodd" xmlns:xlink="http://www.w3.org/1999/xlink">
<g><path style="opacity:0.161" fill="#7B8C56" d="M 263.5,-0.5 C 268.167,-0.5 272.833,-0.5 277.5,-0.5C 282.196,0.337464 286.863,1.33746 291.5,2.5C 281.974,1.97349 272.641,0.973488 263.5,-0.5 Z"/></g>
<g><path style="opacity:1" fill="#7B8C56" d="M 338.5,16.5 C 339.5,16.5 340.5,16.5 341.5,16.5C 342.78,17.9313 344.447,18.5979 346.5,18.5C 347.791,18.2627 348.791,18.596 349.5,19.5C 350.183,21.1765 351.517,21.8432 353.5,21.5C 354.492,21.3284 355.158,21.6618 355.5,22.5C 356.514,23.6737 357.847,24.3404 359.5,24.5C 365.151,26.6588 370.484,29.3255 375.5,32.5C 376.733,34.7964 378.733,36.1298 381.5,36.5C 382.492,36.3284 383.158,36.6618 383.5,37.5C 384.733,39.7964 386.733,41.1298 389.5,41.5C 389.973,42.9063 390.973,43.573 392.5,43.5C 393.035,45.4456 394.368,46.4456 396.5,46.5C 397.148,48.0858 397.648,49.7525 398,51.5C 399.011,50.6634 400.178,50.33 401.5,50.5C 401.33,51.8221 401.663,52.9887 402.5,54C 405.232,56.334 408.232,58.1673 411.5,59.5C 412.605,60.6005 413.938,61.2671 415.5,61.5C 417.167,62.8333 418.833,64.1667 420.5,65.5C 424.773,71.4422 429.773,76.7756 435.5,81.5C 436.5,81.8333 437.167,82.5 437.5,83.5C 438.08,85.7488 439.413,87.4154 441.5,88.5C 442.5,88.8333 443.167,89.5 443.5,90.5C 443.738,92.4044 444.738,93.7377 446.5,94.5C 446.738,96.4044 447.738,97.7377 449.5,98.5C 449.738,100.404 450.738,101.738 452.5,102.5C 452.738,104.404 453.738,105.738 455.5,106.5C 455.427,108.027 456.094,109.027 457.5,109.5C 457.427,111.027 458.094,112.027 459.5,112.5C 459.427,114.027 460.094,115.027 461.5,115.5C 461.427,117.027 462.094,118.027 463.5,118.5C 463.427,120.027 464.094,121.027 465.5,121.5C 466.674,122.514 467.34,123.847 467.5,125.5C 467.427,127.027 468.094,128.027 469.5,128.5C 472.674,133.516 475.341,138.849 477.5,144.5C 477.157,146.483 477.824,147.817 479.5,148.5C 479.229,150.38 479.896,151.713 481.5,152.5C 481.5,152.833 481.5,153.167 481.5,153.5C 481.166,156.491 482.166,158.824 484.5,160.5C 485.404,161.209 485.737,162.209 485.5,163.5C 485.259,165.898 485.926,167.898 487.5,169.5C 487.528,172.916 488.528,175.916 490.5,178.5C 491.434,179.568 491.768,180.901 491.5,182.5C 491.171,185.228 491.837,187.562 493.5,189.5C 493.5,189.833 493.5,190.167 493.5,190.5C 493.294,193.495 493.96,196.162 495.5,198.5C 496.593,202.394 497.26,206.394 497.5,210.5C 497.156,215.122 497.823,219.455 499.5,223.5C 499.5,242.5 499.5,261.5 499.5,280.5C 498.662,280.842 498.328,281.508 498.5,282.5C 496.493,287.854 495.493,293.521 495.5,299.5C 495.5,299.833 495.5,300.167 495.5,300.5C 493.96,302.838 493.294,305.505 493.5,308.5C 493.768,310.099 493.434,311.432 492.5,312.5C 490.96,314.838 490.294,317.505 490.5,320.5C 490.737,321.791 490.404,322.791 489.5,323.5C 487.194,327.085 485.861,331.085 485.5,335.5C 481.932,342.189 478.932,349.189 476.5,356.5C 474.674,361.484 472.341,366.151 469.5,370.5C 468.094,370.973 467.427,371.973 467.5,373.5C 467.672,374.492 467.338,375.158 466.5,375.5C 465.026,376.436 464.026,377.77 463.5,379.5C 460.108,381.498 457.942,384.498 457,388.5C 456.333,387.833 455.667,387.167 455,386.5C 453.761,392.747 451.761,393.08 449,387.5C 448.504,389.035 448.67,390.535 449.5,392C 450.646,392.759 451.646,393.426 452.5,394C 451.02,393.942 450.187,395.109 450,397.5C 449.667,397.167 449.333,396.833 449,396.5C 447.872,398.345 447.372,400.345 447.5,402.5C 446.022,402.238 444.689,402.571 443.5,403.5C 442.191,405.976 440.358,407.976 438,409.5C 436.838,411.824 435.671,414.158 434.5,416.5C 433.914,416.291 433.414,415.957 433,415.5C 431.899,417.394 430.566,418.061 429,417.5C 426.135,420.228 424.635,423.562 424.5,427.5C 423.5,427.5 422.5,427.5 421.5,427.5C 421.5,428.833 421.5,430.167 421.5,431.5C 420.662,431.842 420.328,432.508 420.5,433.5C 419.167,434.5 417.833,435.5 416.5,436.5C 414.948,435.378 413.282,434.878 411.5,435C 411.957,435.414 412.291,435.914 412.5,436.5C 408.862,437.466 407.195,439.799 407.5,443.5C 403.5,442.833 401.833,444.5 402.5,448.5C 402.158,449.338 401.492,449.672 400.5,449.5C 399.153,448.972 397.819,448.805 396.5,449C 397.684,450.145 397.684,451.312 396.5,452.5C 393.725,455.605 390.392,457.938 386.5,459.5C 384.973,459.427 383.973,460.094 383.5,461.5C 381.664,463.588 379.331,464.921 376.5,465.5C 374.973,465.427 373.973,466.094 373.5,467.5C 372.486,468.674 371.153,469.34 369.5,469.5C 367.847,469.66 366.514,470.326 365.5,471.5C 363.181,471.992 361.181,472.992 359.5,474.5C 357.847,474.66 356.514,475.326 355.5,476.5C 354.486,477.674 353.153,478.34 351.5,478.5C 349.447,478.402 347.78,479.069 346.5,480.5C 344.447,480.402 342.78,481.069 341.5,482.5C 338.458,482.733 335.792,483.733 333.5,485.5C 319.476,489.505 305.476,493.171 291.5,496.5C 282.652,497.149 273.986,498.149 265.5,499.5C 254.167,499.5 242.833,499.5 231.5,499.5C 226.056,498.116 220.389,497.45 214.5,497.5C 210.267,497.461 206.267,496.795 202.5,495.5C 199.781,494.087 196.781,493.42 193.5,493.5C 191.162,491.96 188.495,491.294 185.5,491.5C 179.697,489.208 173.697,487.208 167.5,485.5C 165.485,484.076 163.152,483.41 160.5,483.5C 158.165,480.835 155.165,479.502 151.5,479.5C 151.167,479.5 150.833,479.5 150.5,479.5C 149.817,477.824 148.483,477.157 146.5,477.5C 144.967,475.755 142.967,474.755 140.5,474.5C 139.209,474.737 138.209,474.404 137.5,473.5C 137.027,472.094 136.027,471.427 134.5,471.5C 134.167,471.5 133.833,471.5 133.5,471.5C 133.027,470.094 132.027,469.427 130.5,469.5C 128.847,469.34 127.514,468.674 126.5,467.5C 126.027,466.094 125.027,465.427 123.5,465.5C 122.508,465.672 121.842,465.338 121.5,464.5C 121.027,463.094 120.027,462.427 118.5,462.5C 118.027,461.094 117.027,460.427 115.5,460.5C 115.027,459.094 114.027,458.427 112.5,458.5C 112.027,457.094 111.027,456.427 109.5,456.5C 109.027,455.094 108.027,454.427 106.5,454.5C 106.027,453.094 105.027,452.427 103.5,452.5C 102.415,450.413 100.749,449.08 98.5,448.5C 97.7377,446.738 96.4044,445.738 94.5,445.5C 93.0892,443.086 91.0892,441.419 88.5,440.5C 86.7607,437.757 84.4274,435.757 81.5,434.5C 80.5,434.167 79.8333,433.5 79.5,432.5C 75.5,427.833 71.1667,423.5 66.5,419.5C 64.8333,418.5 63.5,417.167 62.5,415.5C 62.2624,413.596 61.2624,412.262 59.5,411.5C 57.086,410.089 55.4194,408.089 54.5,405.5C 54.3712,402.13 52.7046,400.13 49.5,399.5C 48.438,396.484 47.2714,393.484 46,390.5C 44.9887,389.663 43.8221,389.33 42.5,389.5C 42.573,387.973 41.9063,386.973 40.5,386.5C 40.1298,383.733 38.7964,381.733 36.5,380.5C 35.6618,380.158 35.3284,379.492 35.5,378.5C 35.2503,376.326 34.2503,374.659 32.5,373.5C 31.6618,373.158 31.3284,372.492 31.5,371.5C 30.2583,367.345 28.2583,363.678 25.5,360.5C 24.9579,357.088 23.6246,354.088 21.5,351.5C 20.3263,350.486 19.6596,349.153 19.5,347.5C 19.2671,344.458 18.2671,341.792 16.5,339.5C 14.9216,332.425 12.5882,325.758 9.5,319.5C 8.2318,317.095 7.56513,314.428 7.5,311.5C 5.91409,300.637 3.91409,289.97 1.5,279.5C 1.84428,273.902 1.17761,268.568 -0.5,263.5C -0.5,256.167 -0.5,248.833 -0.5,241.5C 0.28997,240.391 0.78997,239.058 1,237.5C 1.49942,231.843 1.66609,226.176 1.5,220.5C 3.10419,216.1 3.77086,211.434 3.5,206.5C 3.86452,201.344 4.86452,196.344 6.5,191.5C 7.92381,189.485 8.59047,187.152 8.5,184.5C 8.23219,182.901 8.56552,181.568 9.5,180.5C 12.4111,173.767 14.7444,166.767 16.5,159.5C 16.2627,158.209 16.596,157.209 17.5,156.5C 19.2132,155.365 19.8799,153.698 19.5,151.5C 20.2271,149.046 21.2271,146.713 22.5,144.5C 24.1042,143.713 24.7709,142.38 24.5,140.5C 25.3257,137.515 26.659,134.849 28.5,132.5C 29.9063,132.027 30.573,131.027 30.5,129.5C 32.4077,128.514 33.4077,126.848 33.5,124.5C 33.6596,122.847 34.3263,121.514 35.5,120.5C 36.9063,120.027 37.573,119.027 37.5,117.5C 38.9063,117.027 39.573,116.027 39.5,114.5C 40.9063,114.027 41.573,113.027 41.5,111.5C 42.9063,111.027 43.573,110.027 43.5,108.5C 45.2624,107.738 46.2624,106.404 46.5,104.5C 47.9063,104.027 48.573,103.027 48.5,101.5C 50.2624,100.738 51.2624,99.4044 51.5,97.5C 53.5869,96.4154 54.9202,94.7488 55.5,92.5C 60.8655,87.1359 65.8655,81.4692 70.5,75.5C 71.5,73.8333 72.8333,72.5 74.5,71.5C 79.1053,68.5643 83.1053,64.8976 86.5,60.5C 89.4274,59.2427 91.7607,57.2427 93.5,54.5C 95.7488,53.9202 97.4154,52.5869 98.5,50.5C 100.404,50.2624 101.738,49.2624 102.5,47.5C 104.027,47.573 105.027,46.9063 105.5,45.5C 107.404,45.2624 108.738,44.2624 109.5,42.5C 111.027,42.573 112.027,41.9063 112.5,40.5C 114.027,40.573 115.027,39.9063 115.5,38.5C 115.842,37.6618 116.508,37.3284 117.5,37.5C 119.027,37.573 120.027,36.9063 120.5,35.5C 122.848,35.4077 124.514,34.4077 125.5,32.5C 127.848,32.4077 129.514,31.4077 130.5,29.5C 133.515,27.3256 136.849,25.6589 140.5,24.5C 143.393,24.9689 145.393,23.9689 146.5,21.5C 148.698,21.8799 150.365,21.2132 151.5,19.5C 154.491,19.8337 156.824,18.8337 158.5,16.5C 160.698,16.8799 162.365,16.2132 163.5,14.5C 165.898,14.7406 167.898,14.0739 169.5,12.5C 171.898,12.7406 173.898,12.0739 175.5,10.5C 179.286,10.68 182.619,9.67997 185.5,7.5C 187.905,6.2318 190.572,5.56513 193.5,5.5C 202.506,5.33356 211.506,5.50023 220.5,6C 223.203,7.53397 225.703,8.70064 228,9.5C 229.512,8.74332 230.846,7.74332 232,6.5C 233.945,7.69217 235.945,7.69217 238,6.5C 239.651,5.25759 241.485,4.42425 243.5,4C 242.304,3.34569 242.304,2.84569 243.5,2.5C 245.834,3.84081 247.501,3.17414 248.5,0.5C 250.804,0.309328 253.138,0.642662 255.5,1.5C 255.5,2.83333 255.5,4.16667 255.5,5.5C 259.749,5.60326 263.916,6.26993 268,7.5C 270.389,7.03694 272.723,6.37027 275,5.5C 278.379,6.76111 281.712,6.76111 285,5.5C 288.035,7.97049 291.535,9.30383 295.5,9.5C 295.719,10.675 295.386,11.675 294.5,12.5C 292.146,13.0601 289.813,13.7267 287.5,14.5C 288.242,15.2868 289.075,15.9535 290,16.5C 295.301,14.5096 300.634,12.5096 306,10.5C 307.726,10.9459 309.226,11.7792 310.5,13C 317.539,12.8867 324.539,13.0534 331.5,13.5C 331.5,14.5 331.5,15.5 331.5,16.5C 333.833,16.5 336.167,16.5 338.5,16.5 Z M 260.5,92.5 C 263.728,93.4137 267.061,93.7471 270.5,93.5C 274.341,95.0026 278.341,96.3359 282.5,97.5C 284.181,99.0075 286.181,100.008 288.5,100.5C 289.262,102.262 290.596,103.262 292.5,103.5C 333.833,145.5 375.5,187.167 417.5,228.5C 418.026,230.23 419.026,231.564 420.5,232.5C 424.523,241.458 425.523,250.792 423.5,260.5C 422.326,261.514 421.66,262.847 421.5,264.5C 420.662,264.842 420.328,265.508 420.5,266.5C 419.094,266.973 418.427,267.973 418.5,269.5C 417.5,269.833 416.833,270.5 416.5,271.5C 373.5,313.833 330.833,356.5 288.5,399.5C 287.508,399.328 286.842,399.662 286.5,400.5C 284.973,400.427 283.973,401.094 283.5,402.5C 279.424,404.186 275.424,405.853 271.5,407.5C 269.265,407.205 267.265,407.539 265.5,408.5C 258.804,408.609 252.137,408.276 245.5,407.5C 243.786,406.262 241.786,405.595 239.5,405.5C 239.158,404.662 238.492,404.328 237.5,404.5C 235.365,402.929 233.032,401.596 230.5,400.5C 229.564,399.026 228.23,398.026 226.5,397.5C 225.167,395.5 223.5,393.833 221.5,392.5C 221.262,390.596 220.262,389.262 218.5,388.5C 218.672,387.508 218.338,386.842 217.5,386.5C 217.573,384.973 216.906,383.973 215.5,383.5C 215.204,381.597 214.537,379.93 213.5,378.5C 213.204,376.597 212.537,374.93 211.5,373.5C 211.795,371.265 211.461,369.265 210.5,367.5C 210.334,362.489 210.501,357.489 211,352.5C 212.043,347.32 213.543,342.32 215.5,337.5C 216.338,337.158 216.672,336.492 216.5,335.5C 217.974,334.564 218.974,333.23 219.5,331.5C 220.906,331.027 221.573,330.027 221.5,328.5C 229.167,321.5 236.5,314.167 243.5,306.5C 244.492,306.672 245.158,306.338 245.5,305.5C 246.404,304.791 246.737,303.791 246.5,302.5C 202.167,302.5 157.833,302.5 113.5,302.5C 108.772,301.755 104.106,300.755 99.5,299.5C 96.0283,297.262 92.3617,295.262 88.5,293.5C 88.0269,292.094 87.0269,291.427 85.5,291.5C 85.1667,290.5 84.5,289.833 83.5,289.5C 81.8333,287.167 79.8333,285.167 77.5,283.5C 77.573,281.973 76.9063,280.973 75.5,280.5C 75.573,278.973 74.9063,277.973 73.5,277.5C 72.4031,274.314 71.0697,271.314 69.5,268.5C 69.405,266.214 68.7384,264.214 67.5,262.5C 67.5,262.167 67.5,261.833 67.5,261.5C 65.6614,249.904 66.6614,238.57 70.5,227.5C 72.4168,224.669 74.0834,221.669 75.5,218.5C 77.2624,217.738 78.2624,216.404 78.5,214.5C 80.8333,212.833 82.8333,210.833 84.5,208.5C 86.0269,208.573 87.0269,207.906 87.5,206.5C 88.1667,206.5 88.5,206.167 88.5,205.5C 90.0269,205.573 91.0269,204.906 91.5,203.5C 98.1578,200.17 105.158,197.836 112.5,196.5C 157.172,196.833 201.838,196.5 246.5,195.5C 246.145,194.478 245.478,193.811 244.5,193.5C 243.833,192.167 242.833,191.167 241.5,190.5C 240.833,189.167 239.833,188.167 238.5,187.5C 238.167,186.5 237.5,185.833 236.5,185.5C 235.833,184.167 234.833,183.167 233.5,182.5C 232.833,181.167 231.833,180.167 230.5,179.5C 230.167,178.5 229.5,177.833 228.5,177.5C 227.833,176.167 226.833,175.167 225.5,174.5C 225.167,173.5 224.5,172.833 223.5,172.5C 223.262,170.596 222.262,169.262 220.5,168.5C 219.674,165.515 218.341,162.849 216.5,160.5C 216.204,158.597 215.537,156.93 214.5,155.5C 214.768,153.901 214.434,152.568 213.5,151.5C 212.902,146.187 212.569,140.854 212.5,135.5C 213.461,133.735 213.795,131.735 213.5,129.5C 214.946,126.746 215.946,123.746 216.5,120.5C 217.674,119.486 218.34,118.153 218.5,116.5C 219.906,116.027 220.573,115.027 220.5,113.5C 221.906,113.027 222.573,112.027 222.5,110.5C 223.833,109.833 224.833,108.833 225.5,107.5C 227.167,106.5 228.5,105.167 229.5,103.5C 232.869,101.485 236.202,99.4854 239.5,97.5C 242.257,96.4878 244.924,95.4878 247.5,94.5C 251.993,94.0242 256.327,93.3576 260.5,92.5 Z"/></g>
<g><path style="opacity:0.569" fill="#7B8C56" d="M 222.5,-0.5 C 225.5,-0.5 228.5,-0.5 231.5,-0.5C 224.063,1.22206 216.396,2.22206 208.5,2.5C 213.167,1.5 217.833,0.5 222.5,-0.5 Z"/></g>
<g><path style="opacity:0.263" fill="#7B8C56" d="M 291.5,2.5 C 304.001,3.95864 316.001,6.95864 327.5,11.5C 315.393,8.4732 303.393,5.4732 291.5,2.5 Z"/></g>
<g><path style="opacity:1" fill="#7B8C56" d="M 231.5,-0.5 C 242.167,-0.5 252.833,-0.5 263.5,-0.5C 272.641,0.973488 281.974,1.97349 291.5,2.5C 303.393,5.4732 315.393,8.4732 327.5,11.5C 330.785,11.9281 333.785,12.9281 336.5,14.5C 337.167,15.1667 337.833,15.8333 338.5,16.5C 336.167,16.5 333.833,16.5 331.5,16.5C 331.5,15.5 331.5,14.5 331.5,13.5C 324.539,13.0534 317.539,12.8867 310.5,13C 309.226,11.7792 307.726,10.9459 306,10.5C 300.634,12.5096 295.301,14.5096 290,16.5C 289.075,15.9535 288.242,15.2868 287.5,14.5C 289.813,13.7267 292.146,13.0601 294.5,12.5C 295.386,11.675 295.719,10.675 295.5,9.5C 291.535,9.30383 288.035,7.97049 285,5.5C 281.712,6.76111 278.379,6.76111 275,5.5C 272.723,6.37027 270.389,7.03694 268,7.5C 263.916,6.26993 259.749,5.60326 255.5,5.5C 255.5,4.16667 255.5,2.83333 255.5,1.5C 253.138,0.642662 250.804,0.309328 248.5,0.5C 247.501,3.17414 245.834,3.84081 243.5,2.5C 242.304,2.84569 242.304,3.34569 243.5,4C 241.485,4.42425 239.651,5.25759 238,6.5C 235.945,7.69217 233.945,7.69217 232,6.5C 230.846,7.74332 229.512,8.74332 228,9.5C 225.703,8.70064 223.203,7.53397 220.5,6C 211.506,5.50023 202.506,5.33356 193.5,5.5C 198.256,3.88209 203.256,2.88209 208.5,2.5C 216.396,2.22206 224.063,1.22206 231.5,-0.5 Z"/></g>
<g><path style="opacity:0.675" fill="#7B8C56" d="M 185.5,7.5 C 182.619,9.67997 179.286,10.68 175.5,10.5C 178.55,8.89934 181.884,7.89934 185.5,7.5 Z"/></g>
<g><path style="opacity:0.678" fill="#7B8C56" d="M 175.5,10.5 C 173.898,12.0739 171.898,12.7406 169.5,12.5C 171.214,11.2616 173.214,10.595 175.5,10.5 Z"/></g>
<g><path style="opacity:0.643" fill="#7B8C56" d="M 169.5,12.5 C 167.898,14.0739 165.898,14.7406 163.5,14.5C 165.214,13.2616 167.214,12.595 169.5,12.5 Z"/></g>
<g><path style="opacity:0.788" fill="#7B8C56" d="M 163.5,14.5 C 162.365,16.2132 160.698,16.8799 158.5,16.5C 159.93,15.4625 161.597,14.7959 163.5,14.5 Z"/></g>
<g><path style="opacity:0.349" fill="#7B8C56" d="M 336.5,14.5 C 338.553,14.4021 340.22,15.0687 341.5,16.5C 340.5,16.5 339.5,16.5 338.5,16.5C 337.833,15.8333 337.167,15.1667 336.5,14.5 Z"/></g>
<g><path style="opacity:0.361" fill="#7B8C56" d="M 341.5,16.5 C 343.553,16.4021 345.22,17.0687 346.5,18.5C 344.447,18.5979 342.78,17.9313 341.5,16.5 Z"/></g>
<g><path style="opacity:0.906" fill="#7B8C56" d="M 158.5,16.5 C 156.824,18.8337 154.491,19.8337 151.5,19.5C 153.509,17.9348 155.843,16.9348 158.5,16.5 Z"/></g>
<g><path style="opacity:0.835" fill="#7B8C56" d="M 151.5,19.5 C 150.365,21.2132 148.698,21.8799 146.5,21.5C 147.93,20.4625 149.597,19.7959 151.5,19.5 Z"/></g>
<g><path style="opacity:0.631" fill="#7B8C56" d="M 349.5,19.5 C 351.153,19.6596 352.486,20.3263 353.5,21.5C 351.517,21.8432 350.183,21.1765 349.5,19.5 Z"/></g>
<g><path style="opacity:0.973" fill="#7B8C56" d="M 146.5,21.5 C 145.393,23.9689 143.393,24.9689 140.5,24.5C 142.181,22.9925 144.181,21.9925 146.5,21.5 Z"/></g>
<g><path style="opacity:0.243" fill="#7B8C56" d="M 355.5,22.5 C 357.38,22.2291 358.713,22.8958 359.5,24.5C 357.847,24.3404 356.514,23.6737 355.5,22.5 Z"/></g>
<g><path style="opacity:0.506" fill="#7B8C56" d="M 130.5,29.5 C 129.514,31.4077 127.848,32.4077 125.5,32.5C 126.659,30.7497 128.326,29.7497 130.5,29.5 Z"/></g>
<g><path style="opacity:0.776" fill="#7B8C56" d="M 375.5,32.5 C 377.882,33.3507 379.882,34.684 381.5,36.5C 378.733,36.1298 376.733,34.7964 375.5,32.5 Z"/></g>
<g><path style="opacity:0.576" fill="#7B8C56" d="M 125.5,32.5 C 124.514,34.4077 122.848,35.4077 120.5,35.5C 121.659,33.7497 123.326,32.7497 125.5,32.5 Z"/></g>
<g><path style="opacity:0.682" fill="#7B8C56" d="M 120.5,35.5 C 120.027,36.9063 119.027,37.573 117.5,37.5C 117.973,36.0937 118.973,35.427 120.5,35.5 Z"/></g>
<g><path style="opacity:0.835" fill="#7B8C56" d="M 383.5,37.5 C 385.882,38.3507 387.882,39.684 389.5,41.5C 386.733,41.1298 384.733,39.7964 383.5,37.5 Z"/></g>
<g><path style="opacity:0.541" fill="#7B8C56" d="M 115.5,38.5 C 115.027,39.9063 114.027,40.573 112.5,40.5C 112.973,39.0937 113.973,38.427 115.5,38.5 Z"/></g>
<g><path style="opacity:0.584" fill="#7B8C56" d="M 112.5,40.5 C 112.027,41.9063 111.027,42.573 109.5,42.5C 109.973,41.0937 110.973,40.427 112.5,40.5 Z"/></g>
<g><path style="opacity:0.11" fill="#7B8C56" d="M 389.5,41.5 C 391.027,41.427 392.027,42.0937 392.5,43.5C 390.973,43.573 389.973,42.9063 389.5,41.5 Z"/></g>
<g><path style="opacity:0.518" fill="#7B8C56" d="M 109.5,42.5 C 108.738,44.2624 107.404,45.2624 105.5,45.5C 106.262,43.7376 107.596,42.7376 109.5,42.5 Z"/></g>
<g><path style="opacity:0.847" fill="#7B8C56" d="M 392.5,43.5 C 394.23,44.0256 395.564,45.0256 396.5,46.5C 394.368,46.4456 393.035,45.4456 392.5,43.5 Z"/></g>
<g><path style="opacity:0.627" fill="#7B8C56" d="M 105.5,45.5 C 105.027,46.9063 104.027,47.573 102.5,47.5C 102.973,46.0937 103.973,45.427 105.5,45.5 Z"/></g>
<g><path style="opacity:0.525" fill="#7B8C56" d="M 102.5,47.5 C 101.738,49.2624 100.404,50.2624 98.5,50.5C 99.2623,48.7376 100.596,47.7376 102.5,47.5 Z"/></g>
<g><path style="opacity:0.737" fill="#7B8C56" d="M 98.5,50.5 C 97.4154,52.5869 95.7488,53.9202 93.5,54.5C 94.5846,52.4131 96.2512,51.0798 98.5,50.5 Z"/></g>
<g><path style="opacity:1" fill="#7B8C56" d="M 396.5,46.5 C 401.762,49.7557 406.762,53.4224 411.5,57.5C 411.5,58.1667 411.5,58.8333 411.5,59.5C 408.232,58.1673 405.232,56.334 402.5,54C 401.663,52.9887 401.33,51.8221 401.5,50.5C 400.178,50.33 399.011,50.6634 398,51.5C 397.648,49.7525 397.148,48.0858 396.5,46.5 Z"/></g>
<g><path style="opacity:0.722" fill="#7B8C56" d="M 93.5,54.5 C 91.7607,57.2427 89.4274,59.2427 86.5,60.5C 88.2393,57.7573 90.5726,55.7573 93.5,54.5 Z"/></g>
<g><path style="opacity:0.447" fill="#7B8C56" d="M 411.5,57.5 C 413.167,58.5 414.5,59.8333 415.5,61.5C 413.938,61.2671 412.605,60.6005 411.5,59.5C 411.5,58.8333 411.5,58.1667 411.5,57.5 Z"/></g>
<g><path style="opacity:0.435" fill="#7B8C56" d="M 420.5,65.5 C 426.227,70.2244 431.227,75.5578 435.5,81.5C 429.773,76.7756 424.773,71.4422 420.5,65.5 Z"/></g>
<g><path style="opacity:0.831" fill="#7B8C56" d="M 86.5,60.5 C 83.1053,64.8976 79.1053,68.5643 74.5,71.5C 77.8947,67.1024 81.8947,63.4357 86.5,60.5 Z"/></g>
<g><path style="opacity:0.698" fill="#7B8C56" d="M 70.5,75.5 C 65.8655,81.4692 60.8655,87.1359 55.5,92.5C 59.3904,85.9375 64.3904,80.2708 70.5,75.5 Z"/></g>
<g><path style="opacity:0.667" fill="#7B8C56" d="M 437.5,83.5 C 439.587,84.5846 440.92,86.2512 441.5,88.5C 439.413,87.4154 438.08,85.7488 437.5,83.5 Z"/></g>
<g><path style="opacity:0.631" fill="#7B8C56" d="M 443.5,90.5 C 445.262,91.2623 446.262,92.5956 446.5,94.5C 444.738,93.7377 443.738,92.4044 443.5,90.5 Z"/></g>
<g><path style="opacity:0.31" fill="#7B8C56" d="M 260.5,92.5 C 256.327,93.3576 251.993,94.0242 247.5,94.5C 247.918,93.7784 248.584,93.2784 249.5,93C 253.152,92.5014 256.818,92.3347 260.5,92.5 Z"/></g>
<g><path style="opacity:0.678" fill="#7B8C56" d="M 270.5,93.5 C 273.568,93.5467 276.568,94.0467 279.5,95C 280.942,95.3768 281.942,96.2101 282.5,97.5C 278.341,96.3359 274.341,95.0026 270.5,93.5 Z"/></g>
<g><path style="opacity:0.522" fill="#7B8C56" d="M 55.5,92.5 C 54.9202,94.7488 53.5869,96.4154 51.5,97.5C 52.0798,95.2512 53.4131,93.5846 55.5,92.5 Z"/></g>
<g><path style="opacity:0.294" fill="#7B8C56" d="M 247.5,94.5 C 244.924,95.4878 242.257,96.4878 239.5,97.5C 241.503,95.0181 244.169,94.0181 247.5,94.5 Z"/></g>
<g><path style="opacity:0.592" fill="#7B8C56" d="M 446.5,94.5 C 448.262,95.2623 449.262,96.5956 449.5,98.5C 447.738,97.7377 446.738,96.4044 446.5,94.5 Z"/></g>
<g><path style="opacity:0.757" fill="#7B8C56" d="M 51.5,97.5 C 51.2624,99.4044 50.2624,100.738 48.5,101.5C 48.7376,99.5956 49.7376,98.2623 51.5,97.5 Z"/></g>
<g><path style="opacity:0.643" fill="#7B8C56" d="M 449.5,98.5 C 451.262,99.2623 452.262,100.596 452.5,102.5C 450.738,101.738 449.738,100.404 449.5,98.5 Z"/></g>
<g><path style="opacity:0.549" fill="#7B8C56" d="M 288.5,100.5 C 290.404,100.738 291.738,101.738 292.5,103.5C 290.596,103.262 289.262,102.262 288.5,100.5 Z"/></g>
<g><path style="opacity:0.506" fill="#7B8C56" d="M 48.5,101.5 C 48.573,103.027 47.9063,104.027 46.5,104.5C 46.427,102.973 47.0937,101.973 48.5,101.5 Z"/></g>
<g><path style="opacity:0.984" fill="#7B8C56" d="M 229.5,103.5 C 228.5,105.167 227.167,106.5 225.5,107.5C 224.839,103.483 226.172,102.149 229.5,103.5 Z"/></g>
<g><path style="opacity:0.796" fill="#7B8C56" d="M 292.5,103.5 C 334.416,143.915 375.916,184.915 417,226.5C 417.464,227.094 417.631,227.761 417.5,228.5C 375.5,187.167 333.833,145.5 292.5,103.5 Z"/></g>
<g><path style="opacity:0.537" fill="#7B8C56" d="M 452.5,102.5 C 454.262,103.262 455.262,104.596 455.5,106.5C 453.738,105.738 452.738,104.404 452.5,102.5 Z"/></g>
<g><path style="opacity:0.588" fill="#7B8C56" d="M 46.5,104.5 C 46.2624,106.404 45.2624,107.738 43.5,108.5C 43.7376,106.596 44.7376,105.262 46.5,104.5 Z"/></g>
<g><path style="opacity:0.439" fill="#7B8C56" d="M 455.5,106.5 C 456.906,106.973 457.573,107.973 457.5,109.5C 456.094,109.027 455.427,108.027 455.5,106.5 Z"/></g>
<g><path style="opacity:0.435" fill="#7B8C56" d="M 43.5,108.5 C 43.573,110.027 42.9063,111.027 41.5,111.5C 41.427,109.973 42.0937,108.973 43.5,108.5 Z"/></g>
<g><path style="opacity:0.427" fill="#7B8C56" d="M 457.5,109.5 C 458.906,109.973 459.573,110.973 459.5,112.5C 458.094,112.027 457.427,111.027 457.5,109.5 Z"/></g>
<g><path style="opacity:0.078" fill="#7B8C56" d="M 222.5,110.5 C 222.573,112.027 221.906,113.027 220.5,113.5C 220.427,111.973 221.094,110.973 222.5,110.5 Z"/></g>
<g><path style="opacity:0.353" fill="#7B8C56" d="M 41.5,111.5 C 41.573,113.027 40.9063,114.027 39.5,114.5C 39.427,112.973 40.0937,111.973 41.5,111.5 Z"/></g>
<g><path style="opacity:0.376" fill="#7B8C56" d="M 459.5,112.5 C 460.906,112.973 461.573,113.973 461.5,115.5C 460.094,115.027 459.427,114.027 459.5,112.5 Z"/></g>
<g><path style="opacity:0.196" fill="#7B8C56" d="M 220.5,113.5 C 220.573,115.027 219.906,116.027 218.5,116.5C 218.427,114.973 219.094,113.973 220.5,113.5 Z"/></g>
<g><path style="opacity:0.318" fill="#7B8C56" d="M 39.5,114.5 C 39.573,116.027 38.9063,117.027 37.5,117.5C 37.427,115.973 38.0937,114.973 39.5,114.5 Z"/></g>
<g><path style="opacity:0.322" fill="#7B8C56" d="M 461.5,115.5 C 462.906,115.973 463.573,116.973 463.5,118.5C 462.094,118.027 461.427,117.027 461.5,115.5 Z"/></g>
<g><path style="opacity:0.259" fill="#7B8C56" d="M 37.5,117.5 C 37.573,119.027 36.9063,120.027 35.5,120.5C 35.427,118.973 36.0937,117.973 37.5,117.5 Z"/></g>
<g><path style="opacity:0.239" fill="#7B8C56" d="M 463.5,118.5 C 464.906,118.973 465.573,119.973 465.5,121.5C 464.094,121.027 463.427,120.027 463.5,118.5 Z"/></g>
<g><path style="opacity:0.475" fill="#7B8C56" d="M 216.5,120.5 C 215.946,123.746 214.946,126.746 213.5,129.5C 213.138,125.919 214.138,122.919 216.5,120.5 Z"/></g>
<g><path style="opacity:0.243" fill="#7B8C56" d="M 467.5,125.5 C 468.906,125.973 469.573,126.973 469.5,128.5C 468.094,128.027 467.427,127.027 467.5,125.5 Z"/></g>
<g><path style="opacity:0.988" fill="#7B8C56" d="M 33.5,124.5 C 33.4077,126.848 32.4077,128.514 30.5,129.5C 30.7497,127.326 31.7497,125.659 33.5,124.5 Z"/></g>
<g><path style="opacity:0.176" fill="#7B8C56" d="M 30.5,129.5 C 30.573,131.027 29.9063,132.027 28.5,132.5C 28.427,130.973 29.0937,129.973 30.5,129.5 Z"/></g>
<g><path style="opacity:0.314" fill="#7B8C56" d="M 212.5,135.5 C 212.569,140.854 212.902,146.187 213.5,151.5C 212.065,148.45 211.398,145.117 211.5,141.5C 211.505,139.304 211.838,137.304 212.5,135.5 Z"/></g>
<g><path style="opacity:0.145" fill="#7B8C56" d="M 24.5,140.5 C 24.7709,142.38 24.1042,143.713 22.5,144.5C 22.6596,142.847 23.3263,141.514 24.5,140.5 Z"/></g>
<g><path style="opacity:0.859" fill="#7B8C56" d="M 477.5,144.5 C 478.674,145.514 479.34,146.847 479.5,148.5C 477.824,147.817 477.157,146.483 477.5,144.5 Z"/></g>
<g><path style="opacity:0.133" fill="#7B8C56" d="M 479.5,148.5 C 480.674,149.514 481.34,150.847 481.5,152.5C 479.896,151.713 479.229,150.38 479.5,148.5 Z"/></g>
<g><path style="opacity:0.729" fill="#7B8C56" d="M 19.5,151.5 C 19.8799,153.698 19.2132,155.365 17.5,156.5C 17.7959,154.597 18.4625,152.93 19.5,151.5 Z"/></g>
<g><path style="opacity:0.757" fill="#7B8C56" d="M 481.5,153.5 C 483.065,155.509 484.065,157.843 484.5,160.5C 482.166,158.824 481.166,156.491 481.5,153.5 Z"/></g>
<g><path style="opacity:0.612" fill="#7B8C56" d="M 214.5,155.5 C 215.537,156.93 216.204,158.597 216.5,160.5C 214.787,159.365 214.12,157.698 214.5,155.5 Z"/></g>
<g><path style="opacity:0.635" fill="#7B8C56" d="M 16.5,159.5 C 14.7444,166.767 12.4111,173.767 9.5,180.5C 10.8604,173.085 13.1937,166.085 16.5,159.5 Z"/></g>
<g><path style="opacity:0.608" fill="#7B8C56" d="M 485.5,163.5 C 486.738,165.214 487.405,167.214 487.5,169.5C 485.926,167.898 485.259,165.898 485.5,163.5 Z"/></g>
<g><path style="opacity:0.69" fill="#7B8C56" d="M 220.5,168.5 C 222.262,169.262 223.262,170.596 223.5,172.5C 221.738,171.738 220.738,170.404 220.5,168.5 Z"/></g>
<g><path style="opacity:0.627" fill="#7B8C56" d="M 487.5,169.5 C 489.072,172.215 490.072,175.215 490.5,178.5C 488.528,175.916 487.528,172.916 487.5,169.5 Z"/></g>
<g><path style="opacity:0.737" fill="#7B8C56" d="M 225.5,174.5 C 226.833,175.167 227.833,176.167 228.5,177.5C 226.5,177.5 225.5,176.5 225.5,174.5 Z"/></g>
<g><path style="opacity:0.741" fill="#7B8C56" d="M 230.5,179.5 C 231.833,180.167 232.833,181.167 233.5,182.5C 232.391,182.443 231.391,182.11 230.5,181.5C 230.5,180.833 230.5,180.167 230.5,179.5 Z"/></g>
<g><path style="opacity:0.749" fill="#7B8C56" d="M 233.5,182.5 C 234.833,183.167 235.833,184.167 236.5,185.5C 234.5,185.5 233.5,184.5 233.5,182.5 Z"/></g>
<g><path style="opacity:0.753" fill="#7B8C56" d="M 238.5,187.5 C 239.833,188.167 240.833,189.167 241.5,190.5C 239.5,190.5 238.5,189.5 238.5,187.5 Z"/></g>
<g><path style="opacity:0.286" fill="#7B8C56" d="M 491.5,182.5 C 492.924,184.515 493.59,186.848 493.5,189.5C 491.837,187.562 491.171,185.228 491.5,182.5 Z"/></g>
<g><path style="opacity:0.443" fill="#7B8C56" d="M 8.5,184.5 C 8.59047,187.152 7.92381,189.485 6.5,191.5C 6.40953,188.848 7.07619,186.515 8.5,184.5 Z"/></g>
<g><path style="opacity:1" fill="#7B8C56" d="M 230.5,181.5 C 231.391,182.11 232.391,182.443 233.5,182.5C 233.5,184.5 234.5,185.5 236.5,185.5C 237.5,185.833 238.167,186.5 238.5,187.5C 238.5,189.5 239.5,190.5 241.5,190.5C 241.511,192.017 242.177,193.184 243.5,194C 201.168,194.5 158.835,194.667 116.5,194.5C 116.389,193.883 116.056,193.383 115.5,193C 152.167,192.667 188.833,192.333 225.5,192C 226.337,190.989 226.67,189.822 226.5,188.5C 222.748,188.499 221.748,186.833 223.5,183.5C 226.979,185.812 229.979,188.646 232.5,192C 233.448,192.483 234.448,192.649 235.5,192.5C 233.645,188.942 231.978,185.275 230.5,181.5 Z"/></g>
<g><path style="opacity:0.591" fill="#7B8C56" d="M 241.5,190.5 C 242.833,191.167 243.833,192.167 244.5,193.5C 201.179,195.495 157.513,196.161 113.5,195.5C 114.209,194.596 115.209,194.263 116.5,194.5C 158.835,194.667 201.168,194.5 243.5,194C 242.177,193.184 241.511,192.017 241.5,190.5 Z"/></g>
<g><path style="opacity:0.07" fill="#7B8C56" d="M 244.5,193.5 C 245.478,193.811 246.145,194.478 246.5,195.5C 201.838,196.5 157.172,196.833 112.5,196.5C 112.5,196.167 112.5,195.833 112.5,195.5C 112.833,195.5 113.167,195.5 113.5,195.5C 157.513,196.161 201.179,195.495 244.5,193.5 Z"/></g>
<g><path style="opacity:0.184" fill="#7B8C56" d="M 112.5,195.5 C 112.5,195.833 112.5,196.167 112.5,196.5C 105.158,197.836 98.1578,200.17 91.5,203.5C 97.6492,198.89 104.649,196.224 112.5,195.5 Z"/></g>
<g><path style="opacity:0.361" fill="#7B8C56" d="M 493.5,190.5 C 494.768,192.905 495.435,195.572 495.5,198.5C 493.96,196.162 493.294,193.495 493.5,190.5 Z"/></g>
<g><path style="opacity:0.012" fill="#7B8C56" d="M 91.5,203.5 C 91.0269,204.906 90.0269,205.573 88.5,205.5C 88.9731,204.094 89.9731,203.427 91.5,203.5 Z"/></g>
<g><path style="opacity:0.004" fill="#7B8C56" d="M 87.5,206.5 C 87.0269,207.906 86.0269,208.573 84.5,208.5C 84.9731,207.094 85.9731,206.427 87.5,206.5 Z"/></g>
<g><path style="opacity:0.078" fill="#7B8C56" d="M 78.5,214.5 C 78.2624,216.404 77.2624,217.738 75.5,218.5C 75.7376,216.596 76.7376,215.262 78.5,214.5 Z"/></g>
<g><path style="opacity:0.639" fill="#7B8C56" d="M 497.5,210.5 C 498.167,213.167 498.833,215.833 499.5,218.5C 499.5,220.167 499.5,221.833 499.5,223.5C 497.823,219.455 497.156,215.122 497.5,210.5 Z"/></g>
<g><path style="opacity:0.529" fill="#7B8C56" d="M 3.5,206.5 C 3.77086,211.434 3.10419,216.1 1.5,220.5C 1.36182,215.586 2.02849,210.919 3.5,206.5 Z"/></g>
<g><path style="opacity:0.506" fill="#7B8C56" d="M 417.5,228.5 C 419.446,229.035 420.446,230.368 420.5,232.5C 419.026,231.564 418.026,230.23 417.5,228.5 Z"/></g>
<g><path style="opacity:0.922" fill="#7B8C56" d="M 1.5,220.5 C 1.66609,226.176 1.49942,231.843 1,237.5C 0.78997,239.058 0.28997,240.391 -0.5,241.5C -0.5,237.5 -0.5,233.5 -0.5,229.5C 0.166667,226.5 0.833333,223.5 1.5,220.5 Z"/></g>
<g><path style="opacity:0.125" fill="#7B8C56" d="M 70.5,227.5 C 66.6614,238.57 65.6614,249.904 67.5,261.5C 66.7321,260.737 66.2321,259.737 66,258.5C 65.3333,252.167 65.3333,245.833 66,239.5C 66.838,235.14 68.338,231.14 70.5,227.5 Z"/></g>
<g><path style="opacity:0.251" fill="#7B8C56" d="M 420.5,232.5 C 422.746,234.649 424.246,237.316 425,240.5C 425.667,246.167 425.667,251.833 425,257.5C 424.768,258.737 424.268,259.737 423.5,260.5C 425.523,250.792 424.523,241.458 420.5,232.5 Z"/></g>
<g><path style="opacity:0.925" fill="#7B8C56" d="M 423.5,260.5 C 423.843,262.483 423.176,263.817 421.5,264.5C 421.66,262.847 422.326,261.514 423.5,260.5 Z"/></g>
<g><path style="opacity:0.729" fill="#7B8C56" d="M 67.5,262.5 C 68.7384,264.214 69.405,266.214 69.5,268.5C 67.7202,267.01 67.0535,265.01 67.5,262.5 Z"/></g>
<g><path style="opacity:0.522" fill="#7B8C56" d="M 420.5,266.5 C 420.573,268.027 419.906,269.027 418.5,269.5C 418.427,267.973 419.094,266.973 420.5,266.5 Z"/></g>
<g><path style="opacity:0.353" fill="#7B8C56" d="M -0.5,263.5 C 1.17761,268.568 1.84428,273.902 1.5,279.5C 0.833333,276.167 0.166667,272.833 -0.5,269.5C -0.5,267.5 -0.5,265.5 -0.5,263.5 Z"/></g>
<g><path style="opacity:0.31" fill="#7B8C56" d="M 73.5,277.5 C 74.9063,277.973 75.573,278.973 75.5,280.5C 74.0937,280.027 73.427,279.027 73.5,277.5 Z"/></g>
<g><path style="opacity:0.635" fill="#7B8C56" d="M 75.5,280.5 C 76.9063,280.973 77.573,281.973 77.5,283.5C 76.0937,283.027 75.427,282.027 75.5,280.5 Z"/></g>
<g><path style="opacity:0.839" fill="#7B8C56" d="M 77.5,283.5 C 79.8333,285.167 81.8333,287.167 83.5,289.5C 80.5,288.5 78.5,286.5 77.5,283.5 Z"/></g>
<g><path style="opacity:0.059" fill="#7B8C56" d="M 85.5,291.5 C 87.0269,291.427 88.0269,292.094 88.5,293.5C 86.9731,293.573 85.9731,292.906 85.5,291.5 Z"/></g>
<g><path style="opacity:0.592" fill="#7B8C56" d="M 498.5,282.5 C 498.117,288.4 497.117,294.067 495.5,299.5C 495.493,293.521 496.493,287.854 498.5,282.5 Z"/></g>
<g><path style="opacity:0.89" fill="#7B8C56" d="M 88.5,293.5 C 92.3617,295.262 96.0283,297.262 99.5,299.5C 95.0027,298.756 91.336,296.756 88.5,293.5 Z"/></g>
<g><path style="opacity:0.4" fill="#7B8C56" d="M 1.5,279.5 C 3.91409,289.97 5.91409,300.637 7.5,311.5C 4.22438,301.194 2.22438,290.528 1.5,279.5 Z"/></g>
<g><path style="opacity:0.322" fill="#7B8C56" d="M 99.5,299.5 C 104.106,300.755 108.772,301.755 113.5,302.5C 113.5,302.833 113.5,303.167 113.5,303.5C 111.833,303.5 110.167,303.5 108.5,303.5C 105.345,302.558 102.345,301.224 99.5,299.5 Z"/></g>
<g><path style="opacity:0.2" fill="#7B8C56" d="M 495.5,300.5 C 495.435,303.428 494.768,306.095 493.5,308.5C 493.294,305.505 493.96,302.838 495.5,300.5 Z"/></g>
<g><path style="opacity:0.057" fill="#7B8C56" d="M 113.5,303.5 C 113.5,303.167 113.5,302.833 113.5,302.5C 157.833,302.5 202.167,302.5 246.5,302.5C 246.737,303.791 246.404,304.791 245.5,305.5C 201.846,303.505 157.846,302.839 113.5,303.5 Z"/></g>
<g><path style="opacity:0.577" fill="#7B8C56" d="M 113.5,303.5 C 157.846,302.839 201.846,303.505 245.5,305.5C 245.158,306.338 244.492,306.672 243.5,306.5C 243.611,305.883 243.944,305.383 244.5,305C 239.177,304.501 233.844,304.334 228.5,304.5C 189.996,304.832 151.663,304.499 113.5,303.5 Z"/></g>
<g><path style="opacity:1" fill="#7B8C56" d="M 108.5,303.5 C 110.167,303.5 111.833,303.5 113.5,303.5C 151.663,304.499 189.996,304.832 228.5,304.5C 227.359,305.339 226.026,306.006 224.5,306.5C 186.875,305.673 149.208,305.173 111.5,305C 109.494,304.917 108.494,304.417 108.5,303.5 Z"/></g>
<g><path style="opacity:0.024" fill="#7B8C56" d="M 492.5,312.5 C 492.435,315.428 491.768,318.095 490.5,320.5C 490.294,317.505 490.96,314.838 492.5,312.5 Z"/></g>
<g><path style="opacity:0.624" fill="#7B8C56" d="M 416.5,271.5 C 409.557,279.78 402.224,287.78 394.5,295.5C 378.167,311.167 362.167,327.167 346.5,343.5C 345.167,344.167 344.167,345.167 343.5,346.5C 325.5,364.167 307.5,381.833 289.5,399.5C 289.167,399.5 288.833,399.5 288.5,399.5C 330.833,356.5 373.5,313.833 416.5,271.5 Z"/></g>
<g><path style="opacity:0.635" fill="#7B8C56" d="M 9.5,319.5 C 12.5882,325.758 14.9216,332.425 16.5,339.5C 13.4013,333.209 11.0679,326.542 9.5,319.5 Z"/></g>
<g><path style="opacity:0.365" fill="#7B8C56" d="M 489.5,323.5 C 488.739,327.784 487.405,331.784 485.5,335.5C 485.861,331.085 487.194,327.085 489.5,323.5 Z"/></g>
<g><path style="opacity:1" fill="#7B8C56" d="M 394.5,295.5 C 389.583,301.758 384.249,307.758 378.5,313.5C 369.833,321.5 361.5,329.833 353.5,338.5C 351.408,340.605 349.075,342.272 346.5,343.5C 362.167,327.167 378.167,311.167 394.5,295.5 Z"/></g>
<g><path style="opacity:0.02" fill="#7B8C56" d="M 221.5,328.5 C 221.573,330.027 220.906,331.027 219.5,331.5C 219.427,329.973 220.094,328.973 221.5,328.5 Z"/></g>
<g><path style="opacity:0.937" fill="#7B8C56" d="M 219.5,331.5 C 218.974,333.23 217.974,334.564 216.5,335.5C 216.5,334.167 216.5,332.833 216.5,331.5C 217.5,331.5 218.5,331.5 219.5,331.5 Z"/></g>
<g><path style="opacity:0.263" fill="#7B8C56" d="M 215.5,337.5 C 213.543,342.32 212.043,347.32 211,352.5C 210.501,357.489 210.334,362.489 210.5,367.5C 208.051,356.835 209.718,346.835 215.5,337.5 Z"/></g>
<g><path style="opacity:0.204" fill="#7B8C56" d="M 485.5,335.5 C 483.458,342.975 480.458,349.975 476.5,356.5C 478.932,349.189 481.932,342.189 485.5,335.5 Z"/></g>
<g><path style="opacity:0.2" fill="#7B8C56" d="M 16.5,339.5 C 18.2671,341.792 19.2671,344.458 19.5,347.5C 17.7329,345.208 16.7329,342.542 16.5,339.5 Z"/></g>
<g><path style="opacity:0.196" fill="#7B8C56" d="M 21.5,351.5 C 23.6246,354.088 24.9579,357.088 25.5,360.5C 23.3754,357.912 22.0421,354.912 21.5,351.5 Z"/></g>
<g><path style="opacity:1" fill="#7B8C56" d="M 343.5,346.5 C 342.797,348.716 341.464,350.549 339.5,352C 339.957,352.414 340.291,352.914 340.5,353.5C 330.856,359.645 323.022,367.645 317,377.5C 316.586,377.043 316.086,376.709 315.5,376.5C 306.904,384.719 298.404,393.052 290,401.5C 289.536,400.906 289.369,400.239 289.5,399.5C 307.5,381.833 325.5,364.167 343.5,346.5 Z"/></g>
<g><path style="opacity:0.239" fill="#7B8C56" d="M 25.5,360.5 C 28.2583,363.678 30.2583,367.345 31.5,371.5C 28.7417,368.322 26.7417,364.655 25.5,360.5 Z"/></g>
<g><path style="opacity:0.184" fill="#7B8C56" d="M 469.5,370.5 C 469.573,372.027 468.906,373.027 467.5,373.5C 467.427,371.973 468.094,370.973 469.5,370.5 Z"/></g>
<g><path style="opacity:0.196" fill="#7B8C56" d="M 32.5,373.5 C 34.2503,374.659 35.2503,376.326 35.5,378.5C 33.7497,377.341 32.7497,375.674 32.5,373.5 Z"/></g>
<g><path style="opacity:0.729" fill="#7B8C56" d="M 211.5,373.5 C 212.537,374.93 213.204,376.597 213.5,378.5C 211.787,377.365 211.12,375.698 211.5,373.5 Z"/></g>
<g><path style="opacity:0.247" fill="#7B8C56" d="M 466.5,375.5 C 466.25,377.674 465.25,379.341 463.5,380.5C 463.5,380.167 463.5,379.833 463.5,379.5C 464.026,377.77 465.026,376.436 466.5,375.5 Z"/></g>
<g><path style="opacity:0.808" fill="#7B8C56" d="M 36.5,380.5 C 38.7964,381.733 40.1298,383.733 40.5,386.5C 38.684,384.882 37.3507,382.882 36.5,380.5 Z"/></g>
<g><path style="opacity:0.663" fill="#7B8C56" d="M 213.5,378.5 C 214.537,379.93 215.204,381.597 215.5,383.5C 213.787,382.365 213.12,380.698 213.5,378.5 Z"/></g>
<g><path style="opacity:0.278" fill="#7B8C56" d="M 215.5,383.5 C 216.906,383.973 217.573,384.973 217.5,386.5C 216.094,386.027 215.427,385.027 215.5,383.5 Z"/></g>
<g><path style="opacity:1" fill="#7B8C56" d="M 463.5,379.5 C 463.5,379.833 463.5,380.167 463.5,380.5C 461.327,384.852 458.66,388.852 455.5,392.5C 454.094,392.973 453.427,393.973 453.5,395.5C 450.229,401.102 446.229,406.102 441.5,410.5C 440.094,410.973 439.427,411.973 439.5,413.5C 438.5,415.167 437.167,416.5 435.5,417.5C 433.413,418.585 432.08,420.251 431.5,422.5C 428.833,425.833 425.833,428.833 422.5,431.5C 422.167,431.5 421.833,431.5 421.5,431.5C 421.5,430.167 421.5,428.833 421.5,427.5C 422.5,427.5 423.5,427.5 424.5,427.5C 424.635,423.562 426.135,420.228 429,417.5C 430.566,418.061 431.899,417.394 433,415.5C 433.414,415.957 433.914,416.291 434.5,416.5C 435.671,414.158 436.838,411.824 438,409.5C 440.358,407.976 442.191,405.976 443.5,403.5C 444.689,402.571 446.022,402.238 447.5,402.5C 447.372,400.345 447.872,398.345 449,396.5C 449.333,396.833 449.667,397.167 450,397.5C 450.187,395.109 451.02,393.942 452.5,394C 451.646,393.426 450.646,392.759 449.5,392C 448.67,390.535 448.504,389.035 449,387.5C 451.761,393.08 453.761,392.747 455,386.5C 455.667,387.167 456.333,387.833 457,388.5C 457.942,384.498 460.108,381.498 463.5,379.5 Z"/></g>
<g><path style="opacity:0.153" fill="#7B8C56" d="M 40.5,386.5 C 41.9063,386.973 42.573,387.973 42.5,389.5C 41.0937,389.027 40.427,388.027 40.5,386.5 Z"/></g>
<g><path style="opacity:1" fill="#7B8C56" d="M 42.5,389.5 C 43.8221,389.33 44.9887,389.663 46,390.5C 47.2714,393.484 48.438,396.484 49.5,399.5C 46.6771,396.525 44.3437,393.192 42.5,389.5 Z"/></g>
<g><path style="opacity:0.427" fill="#7B8C56" d="M 218.5,388.5 C 220.262,389.262 221.262,390.596 221.5,392.5C 219.738,391.738 218.738,390.404 218.5,388.5 Z"/></g>
<g><path style="opacity:0.722" fill="#7B8C56" d="M 221.5,392.5 C 223.5,393.833 225.167,395.5 226.5,397.5C 223.833,396.833 222.167,395.167 221.5,392.5 Z"/></g>
<g><path style="opacity:0.027" fill="#7B8C56" d="M 455.5,392.5 C 455.573,394.027 454.906,395.027 453.5,395.5C 453.427,393.973 454.094,392.973 455.5,392.5 Z"/></g>
<g><path style="opacity:0.545" fill="#7B8C56" d="M 226.5,397.5 C 228.23,398.026 229.564,399.026 230.5,400.5C 228.368,400.446 227.035,399.446 226.5,397.5 Z"/></g>
<g><path style="opacity:1" fill="#7B8C56" d="M 49.5,399.5 C 52.7046,400.13 54.3712,402.13 54.5,405.5C 52.1097,404.109 50.4431,402.109 49.5,399.5 Z"/></g>
<g><path style="opacity:0.867" fill="#7B8C56" d="M 230.5,400.5 C 233.032,401.596 235.365,402.929 237.5,404.5C 234.318,404.416 231.985,403.083 230.5,400.5 Z"/></g>
<g><path style="opacity:0.557" fill="#7B8C56" d="M 286.5,400.5 C 286.027,401.906 285.027,402.573 283.5,402.5C 283.973,401.094 284.973,400.427 286.5,400.5 Z"/></g>
<g><path style="opacity:0.294" fill="#7B8C56" d="M 239.5,405.5 C 241.786,405.595 243.786,406.262 245.5,407.5C 243.102,407.741 241.102,407.074 239.5,405.5 Z"/></g>
<g><path style="opacity:0.651" fill="#7B8C56" d="M 283.5,402.5 C 283.423,403.75 282.756,404.583 281.5,405C 278.28,406.352 274.947,407.186 271.5,407.5C 275.424,405.853 279.424,404.186 283.5,402.5 Z"/></g>
<g><path style="opacity:0.051" fill="#7B8C56" d="M 245.5,407.5 C 252.137,408.276 258.804,408.609 265.5,408.5C 263.022,409.164 260.355,409.497 257.5,409.5C 253.223,409.663 249.223,408.997 245.5,407.5 Z"/></g>
<g><path style="opacity:0.024" fill="#7B8C56" d="M 441.5,410.5 C 441.573,412.027 440.906,413.027 439.5,413.5C 439.427,411.973 440.094,410.973 441.5,410.5 Z"/></g>
<g><path style="opacity:0.02" fill="#7B8C56" d="M 59.5,411.5 C 61.2624,412.262 62.2624,413.596 62.5,415.5C 60.7376,414.738 59.7376,413.404 59.5,411.5 Z"/></g>
<g><path style="opacity:0.024" fill="#7B8C56" d="M 435.5,417.5 C 434.92,419.749 433.587,421.415 431.5,422.5C 432.08,420.251 433.413,418.585 435.5,417.5 Z"/></g>
<g><path style="opacity:0.024" fill="#7B8C56" d="M 66.5,419.5 C 71.1667,423.5 75.5,427.833 79.5,432.5C 74.1667,429.167 69.8333,424.833 66.5,419.5 Z"/></g>
<g><path style="opacity:0.024" fill="#7B8C56" d="M 421.5,431.5 C 421.833,431.5 422.167,431.5 422.5,431.5C 422.167,432.5 421.5,433.167 420.5,433.5C 420.328,432.508 420.662,431.842 421.5,431.5 Z"/></g>
<g><path style="opacity:0.733" fill="#7B8C56" d="M 81.5,434.5 C 84.4274,435.757 86.7607,437.757 88.5,440.5C 85.5726,439.243 83.2393,437.243 81.5,434.5 Z"/></g>
<g><path style="opacity:0.051" fill="#7B8C56" d="M 413.5,439.5 C 413.167,440.5 412.5,441.167 411.5,441.5C 411.5,440.167 412.167,439.5 413.5,439.5 Z"/></g>
<g><path style="opacity:0.439" fill="#7B8C56" d="M 88.5,440.5 C 91.0892,441.419 93.0892,443.086 94.5,445.5C 91.9108,444.581 89.9108,442.914 88.5,440.5 Z"/></g>
<g><path style="opacity:1" fill="#7B8C56" d="M 416.5,436.5 C 415.833,437.833 414.833,438.833 413.5,439.5C 412.167,439.5 411.5,440.167 411.5,441.5C 408.681,444.075 405.681,446.408 402.5,448.5C 401.833,444.5 403.5,442.833 407.5,443.5C 407.195,439.799 408.862,437.466 412.5,436.5C 412.291,435.914 411.957,435.414 411.5,435C 413.282,434.878 414.948,435.378 416.5,436.5 Z"/></g>
<g><path style="opacity:0.671" fill="#7B8C56" d="M 94.5,445.5 C 96.4044,445.738 97.7377,446.738 98.5,448.5C 96.5956,448.262 95.2623,447.262 94.5,445.5 Z"/></g>
<g><path style="opacity:0.749" fill="#7B8C56" d="M 98.5,448.5 C 100.749,449.08 102.415,450.413 103.5,452.5C 101.251,451.92 99.5846,450.587 98.5,448.5 Z"/></g>
<g><path style="opacity:1" fill="#7B8C56" d="M 400.5,449.5 C 399.738,451.262 398.404,452.262 396.5,452.5C 397.684,451.312 397.684,450.145 396.5,449C 397.819,448.805 399.153,448.972 400.5,449.5 Z"/></g>
<g><path style="opacity:0.322" fill="#7B8C56" d="M 103.5,452.5 C 105.027,452.427 106.027,453.094 106.5,454.5C 104.973,454.573 103.973,453.906 103.5,452.5 Z"/></g>
<g><path style="opacity:0.4" fill="#7B8C56" d="M 106.5,454.5 C 108.027,454.427 109.027,455.094 109.5,456.5C 107.973,456.573 106.973,455.906 106.5,454.5 Z"/></g>
<g><path style="opacity:0.408" fill="#7B8C56" d="M 109.5,456.5 C 111.027,456.427 112.027,457.094 112.5,458.5C 110.973,458.573 109.973,457.906 109.5,456.5 Z"/></g>
<g><path style="opacity:0.357" fill="#7B8C56" d="M 112.5,458.5 C 114.027,458.427 115.027,459.094 115.5,460.5C 113.973,460.573 112.973,459.906 112.5,458.5 Z"/></g>
<g><path style="opacity:0.004" fill="#7B8C56" d="M 386.5,459.5 C 386.027,460.906 385.027,461.573 383.5,461.5C 383.973,460.094 384.973,459.427 386.5,459.5 Z"/></g>
<g><path style="opacity:0.31" fill="#7B8C56" d="M 115.5,460.5 C 117.027,460.427 118.027,461.094 118.5,462.5C 116.973,462.573 115.973,461.906 115.5,460.5 Z"/></g>
<g><path style="opacity:0.243" fill="#7B8C56" d="M 118.5,462.5 C 120.027,462.427 121.027,463.094 121.5,464.5C 119.973,464.573 118.973,463.906 118.5,462.5 Z"/></g>
<g><path style="opacity:0.176" fill="#7B8C56" d="M 123.5,465.5 C 125.027,465.427 126.027,466.094 126.5,467.5C 124.973,467.573 123.973,466.906 123.5,465.5 Z"/></g>
<g><path style="opacity:0.012" fill="#7B8C56" d="M 376.5,465.5 C 376.027,466.906 375.027,467.573 373.5,467.5C 373.973,466.094 374.973,465.427 376.5,465.5 Z"/></g>
<g><path style="opacity:0.129" fill="#7B8C56" d="M 130.5,469.5 C 132.027,469.427 133.027,470.094 133.5,471.5C 131.973,471.573 130.973,470.906 130.5,469.5 Z"/></g>
<g><path style="opacity:0.188" fill="#7B8C56" d="M 369.5,469.5 C 368.713,471.104 367.38,471.771 365.5,471.5C 366.514,470.326 367.847,469.66 369.5,469.5 Z"/></g>
<g><path style="opacity:0.161" fill="#7B8C56" d="M 134.5,471.5 C 136.027,471.427 137.027,472.094 137.5,473.5C 135.973,473.573 134.973,472.906 134.5,471.5 Z"/></g>
<g><path style="opacity:0.227" fill="#7B8C56" d="M 365.5,471.5 C 364.089,473.539 362.089,474.539 359.5,474.5C 361.181,472.992 363.181,471.992 365.5,471.5 Z"/></g>
<g><path style="opacity:0.216" fill="#7B8C56" d="M 359.5,474.5 C 358.713,476.104 357.38,476.771 355.5,476.5C 356.514,475.326 357.847,474.66 359.5,474.5 Z"/></g>
<g><path style="opacity:0.38" fill="#7B8C56" d="M 140.5,474.5 C 142.967,474.755 144.967,475.755 146.5,477.5C 144.033,477.245 142.033,476.245 140.5,474.5 Z"/></g>
<g><path style="opacity:0.831" fill="#7B8C56" d="M 146.5,477.5 C 148.483,477.157 149.817,477.824 150.5,479.5C 148.847,479.34 147.514,478.674 146.5,477.5 Z"/></g>
<g><path style="opacity:0.318" fill="#7B8C56" d="M 351.5,478.5 C 350.22,479.931 348.553,480.598 346.5,480.5C 347.78,479.069 349.447,478.402 351.5,478.5 Z"/></g>
<g><path style="opacity:0.914" fill="#7B8C56" d="M 151.5,479.5 C 155.165,479.502 158.165,480.835 160.5,483.5C 157.088,482.925 154.088,481.592 151.5,479.5 Z"/></g>
<g><path style="opacity:0.271" fill="#7B8C56" d="M 346.5,480.5 C 345.22,481.931 343.553,482.598 341.5,482.5C 342.78,481.069 344.447,480.402 346.5,480.5 Z"/></g>
<g><path style="opacity:0.655" fill="#7B8C56" d="M 160.5,483.5 C 163.152,483.41 165.485,484.076 167.5,485.5C 167.167,485.5 166.833,485.5 166.5,485.5C 164.214,485.405 162.214,484.738 160.5,483.5 Z"/></g>
<g><path style="opacity:0.318" fill="#7B8C56" d="M 341.5,482.5 C 339.208,484.267 336.542,485.267 333.5,485.5C 335.792,483.733 338.458,482.733 341.5,482.5 Z"/></g>
<g><path style="opacity:0.145" fill="#7B8C56" d="M 166.5,485.5 C 166.833,485.5 167.167,485.5 167.5,485.5C 173.697,487.208 179.697,489.208 185.5,491.5C 178.733,490.564 172.4,488.564 166.5,485.5 Z"/></g>
<g><path style="opacity:0.149" fill="#7B8C56" d="M 333.5,485.5 C 320.133,491.171 306.133,494.837 291.5,496.5C 305.476,493.171 319.476,489.505 333.5,485.5 Z"/></g>
<g><path style="opacity:0.243" fill="#7B8C56" d="M 185.5,491.5 C 188.495,491.294 191.162,491.96 193.5,493.5C 190.505,493.706 187.838,493.04 185.5,491.5 Z"/></g>
<g><path style="opacity:0.251" fill="#7B8C56" d="M 193.5,493.5 C 196.781,493.42 199.781,494.087 202.5,495.5C 199.219,495.58 196.219,494.913 193.5,493.5 Z"/></g>
<g><path style="opacity:0.169" fill="#7B8C56" d="M 214.5,497.5 C 220.389,497.45 226.056,498.116 231.5,499.5C 228.5,499.5 225.5,499.5 222.5,499.5C 219.833,498.833 217.167,498.167 214.5,497.5 Z"/></g>
<g><path style="opacity:0.173" fill="#7B8C56" d="M 291.5,496.5 C 286.863,497.663 282.196,498.663 277.5,499.5C 273.5,499.5 269.5,499.5 265.5,499.5C 273.986,498.149 282.652,497.149 291.5,496.5 Z"/></g>
</svg>
