<?xml version="1.0" standalone="no"?>
<!DOCTYPE svg PUBLIC "-//W3C//DTD SVG 20010904//EN"
 "http://www.w3.org/TR/2001/REC-SVG-20010904/DTD/svg10.dtd">
<svg version="1.0" xmlns="http://www.w3.org/2000/svg"
 width="338.000000pt" height="338.000000pt" viewBox="0 0 338.000000 338.000000"
 preserveAspectRatio="xMidYMid meet">

<g transform="translate(0.000000,338.000000) scale(0.100000,-0.100000)"
fill="#ffffff" stroke="none">
<path d="M2478 2651 l-78 -6 -296 -345 c-163 -190 -299 -348 -303 -353 -4 -4
-117 152 -252 348 l-244 355 -274 0 -273 0 15 -24 c9 -13 171 -248 360 -523
189 -275 346 -504 350 -509 3 -6 -156 -199 -354 -429 -198 -230 -362 -423
-365 -427 -3 -4 28 -8 69 -8 l74 0 322 375 c177 206 325 375 329 375 4 -1 122
-169 262 -375 l255 -374 273 -1 c149 0 272 2 272 5 0 5 -696 1018 -736 1072
l-24 32 337 393 c338 393 369 430 362 426 -2 -1 -39 -4 -81 -7z m-662 -952
c318 -463 581 -846 582 -850 2 -5 -53 -9 -122 -9 l-125 0 -39 52 c-84 113
-1122 1628 -1122 1638 0 6 47 10 123 10 l123 0 580 -841z"/>
</g>
</svg>
