<?xml version="1.0" standalone="no"?>
<!DOCTYPE svg PUBLIC "-//W3C//DTD SVG 20010904//EN"
 "http://www.w3.org/TR/2001/REC-SVG-20010904/DTD/svg10.dtd">
<svg version="1.0" xmlns="http://www.w3.org/2000/svg"
 width="500.000000pt" height="500.000000pt" viewBox="0 0 500.000000 500.000000"
 preserveAspectRatio="xMidYMid meet">

<g transform="translate(0.000000,500.000000) scale(0.100000,-0.100000)"
fill="#ffffff" stroke="none">
<path d="M453 4989 c-202 -34 -363 -180 -431 -393 -16 -47 -17 -217 -17 -2091
0 -2243 -5 -2077 63 -2208 65 -127 167 -215 306 -266 l71 -26 2050 0 c1961 0
2053 1 2110 18 169 52 301 179 364 351 l26 71 3 2010 c2 1375 -1 2032 -8 2080
-30 197 -193 381 -394 444 -46 14 -246 16 -2071 17 -1118 1 -2043 -2 -2072 -7z
m4063 -210 c103 -19 201 -95 246 -194 l23 -50 3 -1995 c2 -1446 0 -2012 -8
-2055 -20 -105 -96 -202 -195 -247 l-50 -23 -637 -3 -638 -3 0 661 0 660 400
0 400 0 32 29 33 29 0 475 0 475 -24 26 c-42 45 -78 48 -471 45 l-365 -3 -3
222 -2 222 398 0 c388 0 400 1 425 21 46 36 48 63 45 539 -3 480 -2 473 -57
502 -19 10 -131 13 -525 13 -441 0 -511 -2 -583 -18 -347 -75 -618 -313 -731
-642 -44 -131 -52 -209 -52 -541 0 -244 -3 -314 -12 -316 -7 -1 -186 -2 -398
-2 -351 -1 -387 -3 -411 -19 -14 -9 -31 -29 -37 -43 -9 -18 -12 -157 -12 -480
0 -482 1 -498 47 -520 10 -5 198 -11 418 -14 l400 -5 0 -655 0 -655 -855 0
-855 0 -47 22 c-58 26 -132 94 -163 147 -13 23 -28 65 -34 94 -16 75 -16 3969
0 4044 27 129 132 232 263 258 65 13 3961 12 4032 -1z m-598 -1191 l2 -328
-385 0 c-424 0 -440 -2 -469 -59 -23 -44 -24 -707 -1 -751 29 -55 2 -53 693
-59 l162 -1 0 -325 0 -325 -377 0 c-232 0 -393 -4 -416 -11 -76 -21 -71 24
-77 -789 l-5 -725 -327 -3 -327 -2 -3 730 -3 730 -33 32 -32 33 -400 3 -400 3
2 327 3 327 395 0 c421 0 418 0 451 49 11 17 15 105 20 441 l5 420 28 80 c37
109 95 203 178 291 81 85 153 135 258 181 131 56 187 62 645 60 l410 -2 3
-327z"/>
</g>
</svg>
