<?xml version="1.0" standalone="no"?>
<!DOCTYPE svg PUBLIC "-//W3C//DTD SVG 20010904//EN"
 "http://www.w3.org/TR/2001/REC-SVG-20010904/DTD/svg10.dtd">
<svg version="1.0" xmlns="http://www.w3.org/2000/svg"
 width="500.000000pt" height="500.000000pt" viewBox="0 0 500.000000 500.000000"
 preserveAspectRatio="xMidYMid meet">

<g transform="translate(0.000000,500.000000) scale(0.100000,-0.100000)"
fill="#ffffff" stroke="none">
<path d="M1712 4360 c-220 -15 -392 -58 -542 -136 -287 -151 -468 -432 -521
-809 -16 -116 -24 -1420 -10 -1658 22 -385 98 -595 286 -795 135 -143 294
-234 505 -286 181 -44 235 -47 925 -53 886 -7 1089 4 1309 74 294 93 525 316
622 600 76 225 84 338 84 1198 0 860 -8 973 -84 1198 -49 143 -113 244 -231
362 -171 170 -358 257 -640 296 -100 13 -1513 21 -1703 9z m1605 -330 c138
-12 267 -45 358 -93 36 -18 93 -64 141 -112 66 -65 89 -96 121 -165 90 -190
96 -261 97 -1155 1 -788 -4 -882 -50 -1042 -37 -128 -77 -197 -169 -289 -130
-131 -269 -186 -520 -204 -176 -14 -1435 -14 -1607 0 -241 18 -397 79 -523
205 -133 133 -189 289 -205 570 -12 209 -12 1315 0 1515 19 329 107 517 301
646 144 95 275 123 632 134 329 10 1262 4 1424 -10z"/>
<path d="M3399 3692 c-79 -41 -114 -102 -114 -197 0 -61 4 -77 28 -113 43 -65
97 -96 177 -100 78 -5 128 15 177 72 41 46 56 96 51 167 -6 79 -43 134 -117
172 -73 36 -131 36 -202 -1z"/>
<path d="M2325 3446 c-307 -59 -569 -265 -700 -550 -62 -133 -80 -221 -80
-396 0 -130 4 -168 23 -239 92 -338 355 -601 693 -693 121 -33 356 -33 479 1
165 44 300 122 427 244 126 121 206 254 259 432 25 81 27 105 28 250 0 166 -7
214 -55 343 -82 226 -277 433 -503 537 -116 54 -223 77 -371 81 -82 2 -156 -2
-200 -10z m368 -350 c161 -54 293 -168 367 -318 92 -187 92 -369 0 -556 -154
-311 -525 -436 -840 -284 -105 51 -231 177 -282 282 -40 81 -68 198 -68 280 0
146 63 307 162 415 176 192 426 260 661 181z"/>
</g>
</svg>
