<?xml version="1.0" encoding="UTF-8"?>
<!DOCTYPE svg PUBLIC "-//W3C//DTD SVG 1.1//EN" "http://www.w3.org/Graphics/SVG/1.1/DTD/svg11.dtd">
<svg xmlns="http://www.w3.org/2000/svg" version="1.1" width="120px" height="107px" style="shape-rendering:geometricPrecision; text-rendering:geometricPrecision; image-rendering:optimizeQuality; fill-rule:evenodd; clip-rule:evenodd" xmlns:xlink="http://www.w3.org/1999/xlink">
<g><path style="opacity:0.729" fill="#e2e1e2" d="M 81.5,24.5 C 80.8333,25.1667 80.1667,25.8333 79.5,26.5C 79.6433,22.2354 77.6433,19.5688 73.5,18.5C 69.1722,15.0156 64.6722,11.6823 60,8.5C 57.4334,9.86758 54.9334,11.3676 52.5,13C 50.9632,14.1096 50.2965,15.6096 50.5,17.5C 51.5,17.5 52.5,17.5 53.5,17.5C 53.0825,18.2216 52.4158,18.7216 51.5,19C 52.056,19.3826 52.3893,19.8826 52.5,20.5C 50.9731,20.573 49.9731,19.9063 49.5,18.5C 49.1667,17.8333 48.8333,17.1667 48.5,16.5C 51.0283,12.044 54.695,8.71065 59.5,6.5C 65.4609,10.486 71.4609,14.486 77.5,18.5C 79.4674,20.1177 80.8007,22.1177 81.5,24.5 Z"/></g>
<g><path style="opacity:0.942" fill="#747475" d="M 73.5,18.5 C 72.9033,18.7352 72.5699,19.2352 72.5,20C 72.9783,21.3026 73.645,22.4693 74.5,23.5C 69.565,20.4126 64.7317,17.0793 60,13.5C 57.9307,15.0854 55.764,16.4187 53.5,17.5C 52.5,17.5 51.5,17.5 50.5,17.5C 50.2965,15.6096 50.9632,14.1096 52.5,13C 54.9334,11.3676 57.4334,9.86758 60,8.5C 64.6722,11.6823 69.1722,15.0156 73.5,18.5 Z"/></g>
<g><path style="opacity:0.966" fill="#797879" d="M 49.5,18.5 C 49.9731,19.9063 50.9731,20.573 52.5,20.5C 55.4474,21.7805 57.7807,23.7805 59.5,26.5C 59.5,28.5 58.5,29.5 56.5,29.5C 50.6871,25.7555 45.0204,21.7555 39.5,17.5C 38.1401,18.1799 36.8068,18.8466 35.5,19.5C 35.7678,17.901 35.4345,16.5676 34.5,15.5C 36.1233,14.2206 37.79,12.8872 39.5,11.5C 42.5419,14.3454 45.8752,16.6787 49.5,18.5 Z"/></g>
<g><path style="opacity:0.498" fill="#deddde" d="M 48.5,16.5 C 48.8333,17.1667 49.1667,17.8333 49.5,18.5C 45.8752,16.6787 42.5419,14.3454 39.5,11.5C 37.79,12.8872 36.1233,14.2206 34.5,15.5C 30.5181,18.1518 26.8514,21.1518 23.5,24.5C 21.4677,25.0478 20.4677,26.3812 20.5,28.5C 20.8128,32.0419 20.4794,35.3752 19.5,38.5C 19.7155,34.9408 19.3822,31.4408 18.5,28C 18.8623,26.7753 19.3623,25.6086 20,24.5C 25.2582,20.4533 30.4248,16.2866 35.5,12C 37.3646,10.6986 39.3646,10.3653 41.5,11C 43.9957,12.6665 46.329,14.4998 48.5,16.5 Z"/></g>
<g><path style="opacity:0.85" fill="#737373" d="M 34.5,15.5 C 35.4345,16.5676 35.7678,17.901 35.5,19.5C 33.1997,21.984 30.5331,23.984 27.5,25.5C 26.7081,23.2552 25.3747,22.9219 23.5,24.5C 26.8514,21.1518 30.5181,18.1518 34.5,15.5 Z"/></g>
<g><path style="opacity:1" fill="#827f80" d="M 27.5,25.5 C 25.4207,28.812 24.4207,32.4786 24.5,36.5C 22.642,34.2259 22.3086,31.7259 23.5,29C 22.8742,28.2496 22.3742,27.4162 22,26.5C 21.7216,27.4158 21.2216,28.0825 20.5,28.5C 20.4677,26.3812 21.4677,25.0478 23.5,24.5C 25.3747,22.9219 26.7081,23.2552 27.5,25.5 Z"/></g>
<g><path style="opacity:0.992" fill="#555353" d="M 73.5,18.5 C 77.6433,19.5688 79.6433,22.2354 79.5,26.5C 79.8291,40.6766 79.4958,54.6766 78.5,68.5C 78.6663,61.4921 78.4996,54.4921 78,47.5C 77.3292,46.7476 76.4959,46.4142 75.5,46.5C 75.7511,38.8985 75.4178,31.2318 74.5,23.5C 73.645,22.4693 72.9783,21.3026 72.5,20C 72.5699,19.2352 72.9033,18.7352 73.5,18.5 Z"/></g>
<g><path style="opacity:0.271" fill="#a8a8a8" d="M 44.5,29.5 C 43.9033,29.7352 43.5699,30.2352 43.5,31C 44.0556,32.0111 44.7222,32.8444 45.5,33.5C 43.4862,33.3915 41.8195,34.0582 40.5,35.5C 40.5,35.1667 40.5,34.8333 40.5,34.5C 40.6107,33.8826 40.944,33.3826 41.5,33C 38.3486,33.0123 35.6819,32.0123 33.5,30C 34.3431,28.2134 34.5098,26.3801 34,24.5C 34.7387,23.4258 35.7387,22.7591 37,22.5C 39.0246,22.8277 41.1912,22.9944 43.5,23C 44.4231,25.0408 44.7564,27.2075 44.5,29.5 Z"/></g>
<g><path style="opacity:0.108" fill="#d6d6d6" d="M 59.5,26.5 C 60.5735,27.2506 60.7401,28.2506 60,29.5C 58.7083,30.7911 57.5417,30.7911 56.5,29.5C 58.5,29.5 59.5,28.5 59.5,26.5 Z"/></g>
<g><path style="opacity:0.987" fill="#656264" d="M 24.5,36.5 C 25.1667,36.5 25.5,36.8333 25.5,37.5C 24.8826,37.6107 24.3826,37.944 24,38.5C 23.5008,43.1548 23.3342,47.8215 23.5,52.5C 22.791,53.404 21.791,53.7373 20.5,53.5C 21.1031,48.3814 20.4364,43.7147 18.5,39.5C 18.5,38.8333 18.8333,38.5 19.5,38.5C 20.4794,35.3752 20.8128,32.0419 20.5,28.5C 21.2216,28.0825 21.7216,27.4158 22,26.5C 22.3742,27.4162 22.8742,28.2496 23.5,29C 22.3086,31.7259 22.642,34.2259 24.5,36.5 Z"/></g>
<g><path style="opacity:0.147" fill="#dcdbdb" d="M 44.5,29.5 C 50.1571,35.1535 56.1571,40.4869 62.5,45.5C 60.8333,44.8333 59.1667,44.1667 57.5,43.5C 53.817,39.8197 49.817,36.4864 45.5,33.5C 44.7222,32.8444 44.0556,32.0111 43.5,31C 43.5699,30.2352 43.9033,29.7352 44.5,29.5 Z"/></g>
<g><path style="opacity:0.999" fill="#767676" d="M 45.5,33.5 C 49.817,36.4864 53.817,39.8197 57.5,43.5C 56.2921,44.2341 54.9587,44.5674 53.5,44.5C 50.5178,42.5258 47.5178,40.5258 44.5,38.5C 43.4822,39.1925 42.4822,39.8592 41.5,40.5C 41.5,39.5 41.5,38.5 41.5,37.5C 40.5,37.5 39.5,37.5 38.5,37.5C 38.8333,36.5 39.5,35.8333 40.5,35.5C 41.8195,34.0582 43.4862,33.3915 45.5,33.5 Z"/></g>
<g><path style="opacity:0.141" fill="#e3e3e3" d="M 40.5,34.5 C 40.5,34.8333 40.5,35.1667 40.5,35.5C 39.5,35.8333 38.8333,36.5 38.5,37.5C 34.8333,40.1667 31.1667,42.8333 27.5,45.5C 27.5106,43.9826 28.1772,42.8159 29.5,42C 33.0654,39.2534 36.7321,36.7534 40.5,34.5 Z"/></g>
<g><path style="opacity:0.319" fill="#b2b2b2" d="M 25.5,37.5 C 25.5,42.5 25.5,47.5 25.5,52.5C 24.8333,52.5 24.1667,52.5 23.5,52.5C 23.3342,47.8215 23.5008,43.1548 24,38.5C 24.3826,37.944 24.8826,37.6107 25.5,37.5 Z"/></g>
<g><path style="opacity:0.576" fill="#6f6f70" d="M 38.5,37.5 C 39.5,37.5 40.5,37.5 41.5,37.5C 41.5,38.5 41.5,39.5 41.5,40.5C 37.5297,43.491 33.5297,46.491 29.5,49.5C 27.1592,48.6013 26.4925,47.268 27.5,45.5C 31.1667,42.8333 34.8333,40.1667 38.5,37.5 Z"/></g>
<g><path style="opacity:0.616" fill="#bbbab9" d="M 81.5,24.5 C 81.9203,39.7057 81.2536,54.7057 79.5,69.5C 78.8333,69.5 78.5,69.1667 78.5,68.5C 79.4958,54.6766 79.8291,40.6766 79.5,26.5C 80.1667,25.8333 80.8333,25.1667 81.5,24.5 Z"/></g>
<g><path style="opacity:0.876" fill="#7c7b7b" d="M 57.5,43.5 C 59.1667,44.1667 60.8333,44.8333 62.5,45.5C 65.0762,47.8875 66.0762,50.8875 65.5,54.5C 64.5,54.5 63.5,54.5 62.5,54.5C 62.5,59.1667 62.5,63.8333 62.5,68.5C 65.8333,68.5 69.1667,68.5 72.5,68.5C 72.5,69.1667 72.5,69.8333 72.5,70.5C 69.3776,70.2805 66.0442,70.2805 62.5,70.5C 61.5084,70.6716 60.8417,70.3382 60.5,69.5C 61.8174,63.3217 61.8174,56.9883 60.5,50.5C 58.122,48.448 55.7887,46.448 53.5,44.5C 54.9587,44.5674 56.2921,44.2341 57.5,43.5 Z"/></g>
<g><path style="opacity:0.29" fill="#a5a5a6" d="M 47.5,45.5 C 48.1174,45.6107 48.6174,45.944 49,46.5C 51.5055,54.495 48.6722,57.495 40.5,55.5C 40.5,55.1667 40.5,54.8333 40.5,54.5C 41.5,54.5 42.5,54.5 43.5,54.5C 43.5,53.5 43.5,52.5 43.5,51.5C 42.791,50.596 41.791,50.2627 40.5,50.5C 40.5,49.5 40.5,48.5 40.5,47.5C 42.143,47.4802 43.4763,48.1468 44.5,49.5C 45.3886,47.993 46.3886,46.6597 47.5,45.5 Z"/></g>
<g><path style="opacity:0.153" fill="#d6d6d7" d="M 47.5,45.5 C 46.3886,46.6597 45.3886,47.993 44.5,49.5C 43.4763,48.1468 42.143,47.4802 40.5,47.5C 40.5,48.5 40.5,49.5 40.5,50.5C 41.791,50.2627 42.791,50.596 43.5,51.5C 42.5,51.5 41.5,51.5 40.5,51.5C 40.5,52.5 40.5,53.5 40.5,54.5C 40.5,54.8333 40.5,55.1667 40.5,55.5C 39.3622,52.6965 39.1955,49.6965 40,46.5C 42.3806,45.565 44.8806,45.2317 47.5,45.5 Z"/></g>
<g><path style="opacity:0.782" fill="#59595a" d="M 43.5,51.5 C 43.5,52.5 43.5,53.5 43.5,54.5C 42.5,54.5 41.5,54.5 40.5,54.5C 40.5,53.5 40.5,52.5 40.5,51.5C 41.5,51.5 42.5,51.5 43.5,51.5 Z"/></g>
<g><path style="opacity:0.012" fill="#c3c2c3" d="M 62.5,45.5 C 64.371,45.8588 65.871,46.8588 67,48.5C 67.4983,51.8168 67.665,55.1501 67.5,58.5C 66.6554,57.3285 65.9887,55.9952 65.5,54.5C 66.0762,50.8875 65.0762,47.8875 62.5,45.5 Z"/></g>
<g><path style="opacity:0.186" fill="#acacac" d="M 18.5,39.5 C 20.4364,43.7147 21.1031,48.3814 20.5,53.5C 20.8242,57.5546 20.4909,61.5546 19.5,65.5C 17.9246,66.4565 16.258,67.1231 14.5,67.5C 15.8333,66.0665 17.3333,64.7332 19,63.5C 19.7698,55.4515 19.6032,47.4515 18.5,39.5 Z"/></g>
<g><path style="opacity:0.401" fill="#4e4d4e" d="M 75.5,46.5 C 76.4959,46.4142 77.3292,46.7476 78,47.5C 78.4996,54.4921 78.6663,61.4921 78.5,68.5C 78.5,69.1667 78.8333,69.5 79.5,69.5C 79.5,69.8333 79.5,70.1667 79.5,70.5C 76.9338,69.6146 74.6005,69.6146 72.5,70.5C 72.5,69.8333 72.5,69.1667 72.5,68.5C 72.5,67.5 72.5,66.5 72.5,65.5C 73.5,65.5 74.5,65.5 75.5,65.5C 75.5,62.8333 75.5,60.1667 75.5,57.5C 75.5,53.8333 75.5,50.1667 75.5,46.5 Z"/></g>
<g><path style="opacity:0.973" fill="#6d6b6e" d="M 23.5,52.5 C 24.1667,52.5 24.8333,52.5 25.5,52.5C 24.1667,55.1667 24.1667,57.8333 25.5,60.5C 23.631,62.6353 22.9644,65.3019 23.5,68.5C 21.5739,69.4861 19.5739,70.4861 17.5,71.5C 17.719,70.325 17.3857,69.325 16.5,68.5C 15.5832,69.1272 14.5832,69.4606 13.5,69.5C 13.8333,68.8333 14.1667,68.1667 14.5,67.5C 16.258,67.1231 17.9246,66.4565 19.5,65.5C 20.4909,61.5546 20.8242,57.5546 20.5,53.5C 21.791,53.7373 22.791,53.404 23.5,52.5 Z"/></g>
<g><path style="opacity:0.973" fill="#626263" d="M 65.5,54.5 C 65.9887,55.9952 66.6554,57.3285 67.5,58.5C 67.5,59.5 67.5,60.5 67.5,61.5C 66.5655,62.5676 66.2322,63.901 66.5,65.5C 68.5,65.5 70.5,65.5 72.5,65.5C 72.5,66.5 72.5,67.5 72.5,68.5C 69.1667,68.5 65.8333,68.5 62.5,68.5C 62.5,63.8333 62.5,59.1667 62.5,54.5C 63.5,54.5 64.5,54.5 65.5,54.5 Z"/></g>
<g><path style="opacity:0.466" fill="#bdbdbd" d="M 25.5,60.5 C 25.6633,62.8568 25.4966,65.1902 25,67.5C 24.6174,68.056 24.1174,68.3893 23.5,68.5C 22.9644,65.3019 23.631,62.6353 25.5,60.5 Z"/></g>
<g><path style="opacity:0.184" fill="#e8e8e8" d="M 75.5,57.5 C 75.5,60.1667 75.5,62.8333 75.5,65.5C 74.5,65.5 73.5,65.5 72.5,65.5C 70.5,65.5 68.5,65.5 66.5,65.5C 66.2322,63.901 66.5655,62.5676 67.5,61.5C 67.5,62.5 67.5,63.5 67.5,64.5C 69.8333,64.5 72.1667,64.5 74.5,64.5C 74.1984,61.9407 74.5318,59.6074 75.5,57.5 Z"/></g>
<g><path style="opacity:0.655" fill="#ececec" d="M 60.5,69.5 C 60.8417,70.3382 61.5084,70.6716 62.5,70.5C 62.5,70.8333 62.5,71.1667 62.5,71.5C 54.1667,71.5 45.8333,71.5 37.5,71.5C 37.6107,70.8826 37.944,70.3826 38.5,70C 45.8258,69.5003 53.1591,69.3337 60.5,69.5 Z"/></g>
<g><path style="opacity:0.706" fill="#e2e2e1" d="M 72.5,70.5 C 74.6005,69.6146 76.9338,69.6146 79.5,70.5C 88.1318,69.4222 96.7984,69.2556 105.5,70C 108.703,71.7024 111.036,74.2024 112.5,77.5C 111.5,76.8333 110.5,76.1667 109.5,75.5C 108.71,74.2058 107.71,73.0391 106.5,72C 99.8417,71.5004 93.175,71.3337 86.5,71.5C 81.8333,71.5 77.1667,71.5 72.5,71.5C 69.1667,71.5 65.8333,71.5 62.5,71.5C 62.5,71.1667 62.5,70.8333 62.5,70.5C 66.0442,70.2805 69.3776,70.2805 72.5,70.5 Z"/></g>
<g><path style="opacity:1" fill="#4d4d4f" d="M 17.5,71.5 C 14.6434,74.8998 13.3101,78.8998 13.5,83.5C 13.5,84.5 13.5,85.5 13.5,86.5C 12.6753,82.3528 12.1753,78.0195 12,73.5C 11.6174,74.056 11.1174,74.3893 10.5,74.5C 11.075,72.5887 12.075,70.922 13.5,69.5C 14.5832,69.4606 15.5832,69.1272 16.5,68.5C 17.3857,69.325 17.719,70.325 17.5,71.5 Z"/></g>
<g><path style="opacity:1" fill="#807f81" d="M 37.5,71.5 C 45.8333,71.5 54.1667,71.5 62.5,71.5C 65.8333,71.5 69.1667,71.5 72.5,71.5C 71.0813,72.4511 69.4147,72.7845 67.5,72.5C 57.1107,71.859 47.1107,72.5257 37.5,74.5C 36.1667,73.5 36.1667,72.5 37.5,71.5 Z"/></g>
<g><path style="opacity:0.967" fill="#545454" d="M 72.5,71.5 C 77.1667,71.5 81.8333,71.5 86.5,71.5C 86.5,72.5 86.5,73.5 86.5,74.5C 80.1667,74.5 73.8333,74.5 67.5,74.5C 67.5,73.8333 67.5,73.1667 67.5,72.5C 69.4147,72.7845 71.0813,72.4511 72.5,71.5 Z"/></g>
<g><path style="opacity:0.979" fill="#5f5f61" d="M 67.5,72.5 C 67.5,73.1667 67.5,73.8333 67.5,74.5C 59.6484,74.1746 51.9818,74.508 44.5,75.5C 41.9407,75.8016 39.6074,75.4682 37.5,74.5C 47.1107,72.5257 57.1107,71.859 67.5,72.5 Z"/></g>
<g><path style="opacity:1" fill="#484747" d="M 86.5,71.5 C 93.175,71.3337 99.8417,71.5004 106.5,72C 107.71,73.0391 108.71,74.2058 109.5,75.5C 108.833,75.5 108.167,75.5 107.5,75.5C 106.542,75.0472 105.708,74.3805 105,73.5C 98.9242,74.4764 92.7576,74.8097 86.5,74.5C 86.5,73.5 86.5,72.5 86.5,71.5 Z"/></g>
<g><path style="opacity:0.224" fill="#848484" d="M 107.5,75.5 C 108.841,77.8342 108.174,79.5009 105.5,80.5C 105.56,76.5149 103.56,74.8482 99.5,75.5C 98.8333,75.5 98.1667,75.5 97.5,75.5C 91.4277,75.9374 85.4277,75.9374 79.5,75.5C 78.391,75.5569 77.391,75.8902 76.5,76.5C 66.0131,75.5056 55.3464,75.1722 44.5,75.5C 51.9818,74.508 59.6484,74.1746 67.5,74.5C 73.8333,74.5 80.1667,74.5 86.5,74.5C 92.7576,74.8097 98.9242,74.4764 105,73.5C 105.708,74.3805 106.542,75.0472 107.5,75.5 Z"/></g>
<g><path style="opacity:0.11" fill="#d2d2d3" d="M 14.5,67.5 C 14.1667,68.1667 13.8333,68.8333 13.5,69.5C 12.075,70.922 11.075,72.5887 10.5,74.5C 9.54885,75.9187 9.21552,77.5853 9.5,79.5C 8.59603,80.209 8.26269,81.209 8.5,82.5C 6.94845,76.1662 8.94845,71.1662 14.5,67.5 Z"/></g>
<g><path style="opacity:0.412" fill="#b5b5b5" d="M 97.5,75.5 C 98.1667,75.5 98.8333,75.5 99.5,75.5C 100.911,77.914 102.911,79.5806 105.5,80.5C 105.217,81.2891 104.717,81.9558 104,82.5C 102.961,81.2899 101.794,80.2899 100.5,79.5C 99.7494,78.4265 98.7494,78.2599 97.5,79C 96.6959,80.7713 95.5292,82.2713 94,83.5C 92.3163,81.6487 90.4829,79.982 88.5,78.5C 87.4777,78.8555 86.811,79.5222 86.5,80.5C 85.8333,80.8333 85.1667,81.1667 84.5,81.5C 84.8184,79.1816 86.1517,77.8483 88.5,77.5C 90.7277,78.2186 92.561,79.552 94,81.5C 95.4424,79.6089 96.6091,77.6089 97.5,75.5 Z"/></g>
<g><path style="opacity:0.992" fill="#626262" d="M 107.5,75.5 C 108.167,75.5 108.833,75.5 109.5,75.5C 110.5,76.1667 111.5,76.8333 112.5,77.5C 111.188,81.0036 109.188,84.1702 106.5,87C 103.421,88.0904 101.088,87.2571 99.5,84.5C 98.1552,85.3467 97.1552,86.5134 96.5,88C 94.9343,88.765 93.6009,88.5983 92.5,87.5C 93.552,87.6495 94.552,87.4828 95.5,87C 97.3104,84.4811 98.9771,81.9811 100.5,79.5C 101.794,80.2899 102.961,81.2899 104,82.5C 104.717,81.9558 105.217,81.2891 105.5,80.5C 108.174,79.5009 108.841,77.8342 107.5,75.5 Z"/></g>
<g><path style="opacity:0.016" fill="#cfd0d0" d="M 30.5,81.5 C 30.6716,80.5084 30.3382,79.8417 29.5,79.5C 28.6879,78.0069 27.3545,77.3402 25.5,77.5C 22.511,77.8014 21.1776,79.4681 21.5,82.5C 21.5,82.8333 21.5,83.1667 21.5,83.5C 19.5806,76.6062 22.2472,74.1062 29.5,76C 31.2912,77.7897 31.6246,79.623 30.5,81.5 Z"/></g>
<g><path style="opacity:1" fill="#323336" d="M 29.5,79.5 C 29.7997,82.244 28.633,83.9106 26,84.5C 24.3933,83.9265 22.8933,83.2598 21.5,82.5C 21.1776,79.4681 22.511,77.8014 25.5,77.5C 27.3545,77.3402 28.6879,78.0069 29.5,79.5 Z"/></g>
<g><path style="opacity:0.475" fill="#c6c6c6" d="M 79.5,75.5 C 80.4431,78.1092 82.1097,80.1092 84.5,81.5C 84.631,82.2389 84.4643,82.9056 84,83.5C 81.9835,81.316 79.8169,79.316 77.5,77.5C 75.3501,79.1491 73.3501,80.9824 71.5,83C 70.2068,83.49 68.8734,83.6567 67.5,83.5C 61.5,83.5 55.5,83.5 49.5,83.5C 45.1869,82.9905 41.1869,83.6571 37.5,85.5C 37.5743,83.5891 38.5743,82.4224 40.5,82C 50.8333,81.6667 61.1667,81.3333 71.5,81C 72.7138,78.9506 74.3805,77.4506 76.5,76.5C 77.391,75.8902 78.391,75.5569 79.5,75.5 Z"/></g>
<g><path style="opacity:1" fill="#3a3737" d="M 100.5,79.5 C 98.9771,81.9811 97.3104,84.4811 95.5,87C 94.552,87.4828 93.552,87.6495 92.5,87.5C 91.1667,86.8333 90.1667,85.8333 89.5,84.5C 88.791,83.596 87.791,83.2627 86.5,83.5C 86.5,82.5 86.5,81.5 86.5,80.5C 86.811,79.5222 87.4777,78.8555 88.5,78.5C 90.4829,79.982 92.3163,81.6487 94,83.5C 95.5292,82.2713 96.6959,80.7713 97.5,79C 98.7494,78.2599 99.7494,78.4265 100.5,79.5 Z"/></g>
<g><path style="opacity:0.997" fill="#2c2b2e" d="M 13.5,86.5 C 15.6116,89.9415 18.6116,92.2748 22.5,93.5C 22.5,94.5 22.5,95.5 22.5,96.5C 14.7447,93.4157 10.4114,87.7491 9.5,79.5C 9.21552,77.5853 9.54885,75.9187 10.5,74.5C 11.1174,74.3893 11.6174,74.056 12,73.5C 12.1753,78.0195 12.6753,82.3528 13.5,86.5 Z"/></g>
<g><path style="opacity:0.999" fill="#5f5d5e" d="M 84.5,81.5 C 85.1667,81.1667 85.8333,80.8333 86.5,80.5C 86.5,81.5 86.5,82.5 86.5,83.5C 87.791,83.2627 88.791,83.596 89.5,84.5C 87.8626,86.1162 86.0293,87.4496 84,88.5C 83.1667,88.3333 82.3333,88.1667 81.5,88C 80.2744,86.3651 78.941,84.8651 77.5,83.5C 76.1482,84.5244 74.8149,85.5244 73.5,86.5C 71.5,86.5 69.5,86.5 67.5,86.5C 67.5,85.5 67.5,84.5 67.5,83.5C 68.8734,83.6567 70.2068,83.49 71.5,83C 73.3501,80.9824 75.3501,79.1491 77.5,77.5C 79.8169,79.316 81.9835,81.316 84,83.5C 84.4643,82.9056 84.631,82.2389 84.5,81.5 Z"/></g>
<g><path style="opacity:0.314" fill="#7f7f82" d="M 29.5,79.5 C 30.3382,79.8417 30.6716,80.5084 30.5,81.5C 30.67,82.8221 30.3366,83.9887 29.5,85C 27.1667,85.6667 24.8333,85.6667 22.5,85C 21.944,84.6174 21.6107,84.1174 21.5,83.5C 21.5,83.1667 21.5,82.8333 21.5,82.5C 22.8933,83.2598 24.3933,83.9265 26,84.5C 28.633,83.9106 29.7997,82.244 29.5,79.5 Z"/></g>
<g><path style="opacity:0.816" fill="#767676" d="M 49.5,83.5 C 55.5,83.5 61.5,83.5 67.5,83.5C 67.5,84.5 67.5,85.5 67.5,86.5C 69.5,86.5 71.5,86.5 73.5,86.5C 63.3468,87.4942 53.0135,87.8276 42.5,87.5C 42.5,87.1667 42.5,86.8333 42.5,86.5C 44.8333,86.5 47.1667,86.5 49.5,86.5C 49.5,85.5 49.5,84.5 49.5,83.5 Z"/></g>
<g><path style="opacity:0.027" fill="#bcbdbf" d="M 13.5,83.5 C 16.6928,90.101 22.0262,93.101 29.5,92.5C 27.3926,93.4682 25.0593,93.8016 22.5,93.5C 18.6116,92.2748 15.6116,89.9415 13.5,86.5C 13.5,85.5 13.5,84.5 13.5,83.5 Z"/></g>
<g><path style="opacity:0.827" fill="#707072" d="M 9.5,79.5 C 10.4114,87.7491 14.7447,93.4157 22.5,96.5C 25.8333,96.5 29.1667,96.5 32.5,96.5C 23.2676,99.6431 15.7676,97.3098 10,89.5C 9.02304,87.26 8.52304,84.9267 8.5,82.5C 8.26269,81.209 8.59603,80.209 9.5,79.5 Z"/></g>
<g><path style="opacity:0.208" fill="#bababc" d="M 33.5,90.5 C 33.0269,91.9063 32.0269,92.573 30.5,92.5C 30.9731,91.0937 31.9731,90.427 33.5,90.5 Z"/></g>
<g><path style="opacity:1" fill="#343435" d="M 49.5,83.5 C 49.5,84.5 49.5,85.5 49.5,86.5C 47.1667,86.5 44.8333,86.5 42.5,86.5C 39.9001,88.916 37.0668,91.2493 34,93.5C 33.5172,94.448 33.3505,95.448 33.5,96.5C 33.1667,96.5 32.8333,96.5 32.5,96.5C 29.1667,96.5 25.8333,96.5 22.5,96.5C 22.5,95.5 22.5,94.5 22.5,93.5C 25.0593,93.8016 27.3926,93.4682 29.5,92.5C 29.8333,92.5 30.1667,92.5 30.5,92.5C 32.0269,92.573 33.0269,91.9063 33.5,90.5C 35.0627,89.0552 36.396,87.3885 37.5,85.5C 41.1869,83.6571 45.1869,82.9905 49.5,83.5 Z"/></g>
<g><path style="opacity:0.961" fill="#5b5b5b" d="M 42.5,86.5 C 42.5,86.8333 42.5,87.1667 42.5,87.5C 40.4784,91.5216 37.4784,94.5216 33.5,96.5C 33.3505,95.448 33.5172,94.448 34,93.5C 37.0668,91.2493 39.9001,88.916 42.5,86.5 Z"/></g>
</svg>
